<svg width="32" height="32" viewBox="0 0 32 32" fill="none" xmlns="http://www.w3.org/2000/svg">
<rect width="32" height="32" rx="5" fill="white"/>
<path d="M10.58 27.9886C10.352 31.453 10.8079 32 10.8079 32C10.8079 32 10.1849 31.5594 9.66828 31.0275C9.15167 30.4957 8.39394 29.5081 7.93609 28.5812C7.47823 27.6543 7.19155 26.378 7.0396 25.2991C6.88765 24.2203 7.22194 22.6097 7.22194 22.6097C7.22194 22.6097 7.29791 23.6581 7.70817 24.0684C8.11842 24.4786 8.27037 25.1928 8.27037 25.1928C8.27037 25.1928 8.20655 23.9468 7.99687 23.2479C7.78718 22.5489 7.82466 22.0779 7.99687 21.8196C8.16907 21.5613 8.84777 20.8927 9.59231 19.8291C10.3368 18.7654 10.7471 17.8841 10.7471 17.8841C10.7471 17.8841 11.0814 18.3096 11.1574 18.9934C11.2333 19.6771 11.1574 20.4368 11.1574 20.4368C11.1574 20.4368 11.7044 18.0969 12.0235 17.246C12.3425 16.3951 12.221 15.2858 12.221 15.2858C12.221 15.2858 12.5857 15.6961 12.6616 16.0304C12.7376 16.3647 12.7984 16.9269 12.7984 16.9269C12.7984 16.9269 12.9503 15.2099 13.5581 14.4198C14.1659 13.6296 14.485 13.3865 14.9408 12.8243C15.3967 12.2621 15.5942 11.4872 15.5942 11.4872C15.5942 11.4872 15.8525 11.9582 15.8525 12.3837C15.8525 12.8091 15.7765 13.3713 15.7765 13.3713C15.7765 13.3713 16.278 12.4596 16.5819 12.1102C16.8858 11.7607 17.4632 11.1225 17.7215 10.7426C17.9798 10.3628 18.0557 10.1652 18.1621 9.69421C18.2685 9.22317 18.7243 8.63058 18.7243 8.63058C18.7243 8.63058 18.7851 9.31434 19.013 9.58784C19.2409 9.86135 19.2561 10.4539 19.2561 10.4539C19.2561 10.4539 19.7272 10.0893 19.5448 9.4207C19.3625 8.75214 19.3777 8.18993 19.3777 8.18993C19.3777 8.18993 20.0918 6.83761 20.4109 5.89554C20.73 4.95347 20.8972 4.0114 21.0035 3.20608C21.1099 2.40076 21.0795 1.77778 21.0035 1.32194C20.9275 0.866097 20.5781 0 20.5781 0C20.5781 0 21.6873 1.32194 21.9912 1.7018C22.2951 2.08167 22.4774 2.21842 22.8269 2.8566C23.1764 3.49478 23.1915 4.8471 23.1915 4.8471C23.1915 4.8471 23.4651 4.64957 23.6626 4.26971C23.8601 3.88984 23.8601 3.25166 23.8601 3.25166C23.8601 3.25166 23.9361 4.60399 24.0273 5.22697C24.1184 5.84995 24.3311 6.5641 24.4071 7.39981C24.4831 8.23552 24.3615 9.69421 24.3311 9.78537C24.3008 9.87654 24.0121 10.0741 23.8145 10.3476C23.617 10.6211 23.4347 11.0009 23.4347 11.0009C23.4347 11.0009 23.6778 10.9554 23.8753 10.8338C24.0728 10.7123 24.4071 10.7426 24.4071 10.7426C24.4071 10.7426 24.1488 10.8946 23.9665 11.1377C23.7841 11.3808 23.8753 11.7455 23.693 12.3837C23.5106 13.0218 23.146 13.5689 22.8725 13.8424C22.599 14.1159 21.976 14.6477 21.6265 14.9972C21.277 15.3466 20.5933 16.5014 20.5933 16.5014C20.5933 16.5014 21.4594 16.1064 21.7025 15.8329C21.9456 15.5594 22.2343 15.301 22.4622 15.1035C22.6901 14.906 23.2979 14.5413 23.2979 14.5413C23.2979 14.5413 22.9484 15.0427 22.8725 15.3466C22.7965 15.6505 22.7357 15.8025 22.6445 16.0912C22.5534 16.3799 22.4166 16.6534 22.2191 16.9117C22.0216 17.17 21.8088 17.2915 21.4138 17.5043C21.0187 17.717 20.882 17.7474 20.882 17.7474C20.882 17.7474 21.1403 17.793 21.277 17.8689C21.4138 17.9449 21.7025 17.8689 21.7025 17.8689C21.7025 17.8689 21.5049 18.1273 21.4138 18.264C21.3226 18.4008 20.9883 19.1301 20.7756 19.3884C20.5629 19.6467 19.6208 20.4368 18.6179 20.9079C17.6151 21.3789 15.9437 21.9259 15.9437 21.9259C15.9437 21.9259 17.2048 21.9563 18.0254 21.7436C18.8459 21.5309 20.1222 21.0142 20.1222 21.0142C20.1222 21.0142 19.636 21.9783 19.3625 22.5641C19.089 23.1499 18.39 23.9772 17.4783 24.5242C16.5667 25.0712 15.4119 25.6182 15.4119 25.6182C15.4119 25.6182 15.9589 25.8006 16.673 25.6182C17.3872 25.4359 18.1621 25.056 18.1621 25.056C18.1621 25.056 17.4935 25.9677 16.7186 26.6363C15.9437 27.3048 14.8345 27.8215 14.0292 28.3989C13.2238 28.9763 12.9351 29.3713 12.4793 30.1462C12.0235 30.9212 11.8563 32 11.8563 32C11.8563 32 11.2941 29.812 11.6132 27.1681C11.9323 24.5242 12.6464 22.0323 14.0292 19.8291C15.4119 17.6258 16.418 16.3039 17.3568 15.1795C18.2956 14.0551 19.3229 12.9915 20.2042 11.7303C21.0855 10.4691 21.6265 8.585 21.6265 8.585C21.6265 8.585 21.429 9.1472 21.1251 9.81576C20.8212 10.4843 20.3805 11.1377 20.3805 11.1377C20.3805 11.1377 21.0127 9.80057 21.3074 8.78253C21.6021 7.76448 21.6873 6.82241 21.6873 6.82241C21.6873 6.82241 21.2222 8.82811 20.806 9.78537C20.3898 10.7426 20.3897 10.849 19.9459 11.5328C19.502 12.2165 18.9338 12.8395 18.4568 13.3713C17.9798 13.9031 16.5615 15.2251 15.6398 16.4255C14.7181 17.6258 13.8164 18.7806 12.9199 20.3609C12.0235 21.9411 10.8079 24.5242 10.58 27.9886Z" fill="url(#paint0_linear)"/>
<defs>
<linearGradient id="paint0_linear" x1="15.7159" y1="0" x2="15.7159" y2="32" gradientUnits="userSpaceOnUse">
<stop stop-color="#7986CB"/>
<stop offset="0.713542" stop-color="#283593"/>
</linearGradient>
</defs>
</svg>
