<svg width="16" height="14" viewBox="0 0 16 14" fill="none" xmlns="http://www.w3.org/2000/svg">
<path fill-rule="evenodd" clip-rule="evenodd" d="M1.5 0.75C1.5 0.551088 1.42098 0.360322 1.28033 0.21967C1.13968 0.0790177 0.948912 0 0.75 0C0.551088 0 0.360322 0.0790177 0.21967 0.21967C0.0790176 0.360322 0 0.551088 0 0.75L0 13.25C0 13.664 0.336 14 0.75 14H15.25C15.4489 14 15.6397 13.921 15.7803 13.7803C15.921 13.6397 16 13.4489 16 13.25C16 13.0511 15.921 12.8603 15.7803 12.7197C15.6397 12.579 15.4489 12.5 15.25 12.5H1.5V0.75ZM15.78 3.28C15.9125 3.13783 15.9846 2.94978 15.9812 2.75548C15.9777 2.56118 15.899 2.37579 15.7616 2.23838C15.6242 2.10097 15.4388 2.02225 15.2445 2.01883C15.0502 2.0154 14.8622 2.08752 14.72 2.22L10 6.94L7.53 4.47C7.38937 4.32955 7.19875 4.25066 7 4.25066C6.80125 4.25066 6.61063 4.32955 6.47 4.47L3.22 7.72C3.08752 7.86218 3.0154 8.05022 3.01883 8.24452C3.02225 8.43882 3.10097 8.62421 3.23838 8.76162C3.37579 8.89903 3.56118 8.97775 3.75548 8.98118C3.94978 8.9846 4.13783 8.91248 4.28 8.78L7 6.06L9.47 8.53C9.61063 8.67045 9.80125 8.74934 10 8.74934C10.1988 8.74934 10.3894 8.67045 10.53 8.53L15.78 3.28V3.28Z" fill="white"/>
</svg>
