<svg width="12" height="15" viewBox="0 0 12 15" fill="none" xmlns="http://www.w3.org/2000/svg">
<path fill-rule="evenodd" clip-rule="evenodd" d="M1.75 1.5C1.6837 1.5 1.62011 1.52634 1.57322 1.57322C1.52634 1.62011 1.5 1.6837 1.5 1.75V13.25C1.5 13.388 1.612 13.5 1.75 13.5H10.25C10.3163 13.5 10.3799 13.4737 10.4268 13.4268C10.4737 13.3799 10.5 13.3163 10.5 13.25V6H7.75C7.28587 6 6.84075 5.81563 6.51256 5.48744C6.18437 5.15925 6 4.71413 6 4.25V1.5H1.75ZM7.5 2.06V4.25C7.5 4.388 7.612 4.5 7.75 4.5H9.94L7.5 2.06ZM0 1.75C0 0.784 0.784 0 1.75 0H6.836C7.3 0 7.745 0.184 8.073 0.513L11.487 3.927C11.816 4.255 12 4.7 12 5.164V13.25C12 13.7141 11.8156 14.1592 11.4874 14.4874C11.1592 14.8156 10.7141 15 10.25 15H1.75C1.28587 15 0.840752 14.8156 0.512563 14.4874C0.184375 14.1592 0 13.7141 0 13.25V1.75Z" fill="white"/>
</svg>
