<svg width="14" height="12" viewBox="0 0 14 12" fill="none" xmlns="http://www.w3.org/2000/svg">
<path fill-rule="evenodd" clip-rule="evenodd" d="M0 0.75C0 0.551088 0.0790177 0.360322 0.21967 0.21967C0.360322 0.0790175 0.551088 0 0.75 0H13.25C13.3485 -2.07555e-09 13.446 0.0193993 13.537 0.0570903C13.628 0.0947813 13.7107 0.150026 13.7803 0.21967C13.85 0.289314 13.9052 0.371993 13.9429 0.462987C13.9806 0.553982 14 0.651509 14 0.75C14 0.848491 13.9806 0.946018 13.9429 1.03701C13.9052 1.12801 13.85 1.21069 13.7803 1.28033C13.7107 1.34997 13.628 1.40522 13.537 1.44291C13.446 1.4806 13.3485 1.5 13.25 1.5H0.75C0.551088 1.5 0.360322 1.42098 0.21967 1.28033C0.0790177 1.13968 0 0.948912 0 0.75ZM0 5.75C0 5.55109 0.0790177 5.36032 0.21967 5.21967C0.360322 5.07902 0.551088 5 0.75 5H13.25C13.4489 5 13.6397 5.07902 13.7803 5.21967C13.921 5.36032 14 5.55109 14 5.75C14 5.94891 13.921 6.13968 13.7803 6.28033C13.6397 6.42098 13.4489 6.5 13.25 6.5H0.75C0.551088 6.5 0.360322 6.42098 0.21967 6.28033C0.0790177 6.13968 0 5.94891 0 5.75ZM0.75 10C0.551088 10 0.360322 10.079 0.21967 10.2197C0.0790177 10.3603 0 10.5511 0 10.75C0 10.9489 0.0790177 11.1397 0.21967 11.2803C0.360322 11.421 0.551088 11.5 0.75 11.5H13.25C13.4489 11.5 13.6397 11.421 13.7803 11.2803C13.921 11.1397 14 10.9489 14 10.75C14 10.5511 13.921 10.3603 13.7803 10.2197C13.6397 10.079 13.4489 10 13.25 10H0.75Z" fill="white"/>
</svg>
