<svg width="16" height="16" viewBox="0 0 16 16" fill="none" xmlns="http://www.w3.org/2000/svg">
<path fill-rule="evenodd" clip-rule="evenodd" d="M13.78 4.22C13.9204 4.36062 13.9993 4.55125 13.9993 4.75C13.9993 4.94875 13.9204 5.13937 13.78 5.28L6.52997 12.53C6.38934 12.6704 6.19872 12.7493 5.99997 12.7493C5.80122 12.7493 5.61059 12.6704 5.46997 12.53L2.21997 9.28C2.08749 9.13782 2.01537 8.94978 2.01879 8.75547C2.02222 8.56117 2.10093 8.37579 2.23835 8.23837C2.37576 8.10096 2.56114 8.02225 2.75545 8.01882C2.94975 8.01539 3.13779 8.08752 3.27997 8.22L5.99997 10.94L12.72 4.22C12.8606 4.07955 13.0512 4.00066 13.25 4.00066C13.4487 4.00066 13.6393 4.07955 13.78 4.22V4.22Z" fill="#283593"/>
</svg>
