<svg width="10" height="10" viewBox="0 0 10 10" fill="none" xmlns="http://www.w3.org/2000/svg">
<path fill-rule="evenodd" clip-rule="evenodd" d="M4.68658 0.693179C4.8954 0.678207 5.10503 0.678207 5.31385 0.693179C5.33885 0.694998 5.37521 0.715907 5.38748 0.765906L5.54703 1.42499C5.61657 1.71045 5.83157 1.9159 6.08021 2.0059C6.17339 2.03954 6.2643 2.07726 6.35293 2.11908C6.47679 2.17899 6.61357 2.20727 6.75103 2.2014C6.88849 2.19553 7.02235 2.15569 7.14066 2.08545L7.7202 1.73272C7.76429 1.70545 7.80474 1.71636 7.82384 1.73272C7.98202 1.86999 8.1302 2.01817 8.26747 2.17635C8.28383 2.19544 8.29474 2.23544 8.26747 2.27999L7.91474 2.85908C7.84442 2.97744 7.80454 3.11138 7.79867 3.24893C7.7928 3.38648 7.82112 3.52334 7.88111 3.64726C7.92293 3.73589 7.96065 3.8268 7.99383 3.91998C8.08383 4.16862 8.2902 4.38362 8.57474 4.45271L9.23383 4.61316C9.28428 4.62498 9.30519 4.66134 9.30701 4.68634C9.32197 4.89516 9.32197 5.10479 9.30701 5.31361C9.30519 5.33861 9.28428 5.37497 9.23428 5.38725L8.5752 5.54679C8.44187 5.58079 8.31904 5.64728 8.21768 5.74031C8.11631 5.83335 8.03956 5.95004 7.99429 6.07997C7.9607 6.17261 7.92278 6.26362 7.88065 6.3527C7.82082 6.47659 7.79261 6.61339 7.79856 6.75085C7.80451 6.88831 7.84443 7.02216 7.91474 7.14042L8.26747 7.71996C8.29474 7.76405 8.28383 7.80451 8.26747 7.8236C8.13048 7.98198 7.98221 8.13024 7.82384 8.26723C7.80474 8.2836 7.76474 8.2945 7.7202 8.26723L7.14066 7.91451C7.02235 7.84426 6.88849 7.80442 6.75103 7.79855C6.61357 7.79268 6.47679 7.82096 6.35293 7.88087C6.26384 7.92269 6.17283 7.96031 6.08021 7.9936C5.95036 8.03894 5.83376 8.11571 5.74081 8.21707C5.64785 8.31843 5.58144 8.44123 5.54748 8.5745L5.38703 9.23359C5.37521 9.28405 5.33885 9.30495 5.31385 9.30677C5.10503 9.32174 4.8954 9.32174 4.68658 9.30677C4.66158 9.30495 4.62521 9.28405 4.61294 9.23405L4.4534 8.57496C4.4194 8.44163 4.35291 8.3188 4.25988 8.21744C4.16684 8.11607 4.05015 8.03933 3.92022 7.99405C3.82758 7.96046 3.73657 7.92254 3.64749 7.88042C3.52354 7.8205 3.38666 7.79225 3.24911 7.7982C3.11156 7.80415 2.97763 7.84411 2.85931 7.91451L2.28023 8.26723C2.23614 8.2945 2.19568 8.2836 2.17659 8.26723C2.01822 8.13024 1.86995 7.98197 1.73296 7.8236C1.71659 7.80451 1.70568 7.76451 1.73296 7.71996L2.08568 7.14042C2.15593 7.02212 2.19577 6.88825 2.20164 6.75079C2.20751 6.61333 2.17922 6.47656 2.11932 6.3527C2.07736 6.2636 2.03959 6.17259 2.00614 6.07997C1.96084 5.95018 1.88414 5.83362 1.78286 5.74066C1.68158 5.64771 1.55888 5.58127 1.42569 5.54725L0.766598 5.38679C0.716144 5.37497 0.695235 5.33861 0.693416 5.31361C0.678444 5.10479 0.678444 4.89516 0.693416 4.68634C0.695235 4.66134 0.716144 4.62498 0.766143 4.61271L1.42523 4.45316C1.55855 4.41916 1.68138 4.35268 1.78275 4.25964C1.88411 4.1666 1.96086 4.04991 2.00614 3.91998C2.03959 3.82736 2.07736 3.73635 2.11932 3.64726C2.1793 3.52334 2.20763 3.38648 2.20176 3.24893C2.19589 3.11138 2.15601 2.97744 2.08568 2.85908L1.73296 2.27999C1.70568 2.2359 1.71659 2.19544 1.73296 2.17635C1.87023 2.01817 2.01841 1.86999 2.17659 1.73272C2.19568 1.71636 2.23568 1.70545 2.28023 1.73272L2.85931 2.08545C2.97767 2.15577 3.11162 2.19565 3.24917 2.20152C3.38672 2.20739 3.52357 2.17907 3.64749 2.11908C3.73659 2.07712 3.82759 2.03936 3.92022 2.0059C4.05001 1.9606 4.16657 1.8839 4.25952 1.78262C4.35248 1.68134 4.41892 1.55864 4.45294 1.42545L4.6134 0.766361C4.62522 0.715907 4.66158 0.694998 4.68658 0.693179ZM5.00021 1.08873e-06C4.8784 1.08873e-06 4.75749 0.00454652 4.63794 0.0127283C4.29113 0.0377282 4.02658 0.293181 3.95067 0.605453L3.79067 1.26454C3.78158 1.29999 3.74976 1.34272 3.6884 1.36454C3.57602 1.40527 3.46559 1.45123 3.35749 1.50227C3.2984 1.52954 3.24568 1.52227 3.21431 1.50318L2.63522 1.15045C2.36068 0.983178 1.99341 0.989542 1.73068 1.21727C1.5475 1.37545 1.37614 1.54727 1.2175 1.72999C0.990233 1.99317 0.983415 2.36044 1.15069 2.63453L1.50341 3.21408C1.5225 3.24544 1.53023 3.29817 1.5025 3.35726C1.45162 3.46536 1.40582 3.57579 1.36523 3.68816C1.3425 3.74953 1.30023 3.7818 1.26478 3.79044L0.60569 3.95044C0.293418 4.02634 0.0379651 4.29089 0.0129653 4.63771C-0.00432176 4.87891 -0.00432176 5.12104 0.0129653 5.36225C0.0379651 5.70906 0.293418 5.97361 0.60569 6.04952L1.26478 6.20952C1.30023 6.21861 1.34296 6.25042 1.36478 6.31179C1.40569 6.42451 1.45159 6.53497 1.5025 6.64315C1.52978 6.70179 1.5225 6.75451 1.50341 6.78588L1.15069 7.36496C0.983415 7.63951 0.989779 8.00678 1.2175 8.26951C1.37569 8.45269 1.5475 8.62405 1.73023 8.78268C1.99341 9.00996 2.36068 9.01677 2.63477 8.8495L3.21431 8.49678C3.24568 8.47769 3.2984 8.46996 3.35749 8.49769C3.46522 8.54859 3.57567 8.5945 3.6884 8.63496C3.74976 8.65768 3.78204 8.69996 3.79067 8.73541L3.95067 9.3945C4.02658 9.70677 4.29113 9.96222 4.63794 9.98677C4.87915 10.0041 5.12128 10.0041 5.36248 9.98677C5.7093 9.96222 5.97384 9.70677 6.04975 9.3945L6.20975 8.73541C6.21884 8.69996 6.25066 8.65723 6.31202 8.63541C6.42475 8.5945 6.5352 8.54859 6.64339 8.49769C6.70202 8.47041 6.75475 8.47769 6.78611 8.49678L7.3652 8.8495C7.63975 9.01677 8.00702 9.01041 8.26974 8.78268C8.45292 8.6245 8.62429 8.45269 8.78292 8.26996C9.01019 8.00678 9.01701 7.63951 8.84974 7.36542L8.49701 6.78588C8.47792 6.75451 8.4702 6.70179 8.49792 6.6427C8.54883 6.53497 8.59474 6.42451 8.63519 6.31179C8.65792 6.25042 8.7002 6.21815 8.73565 6.20952L9.39474 6.04952C9.70701 5.97361 9.96246 5.70906 9.98701 5.36225C10.0043 5.12104 10.0043 4.87891 9.98701 4.63771C9.96246 4.29089 9.70701 4.02634 9.39474 3.95044L8.73565 3.79044C8.7002 3.78135 8.65747 3.74953 8.63565 3.68816C8.5949 3.57578 8.54894 3.46536 8.49792 3.35726C8.47065 3.29817 8.47792 3.24544 8.49701 3.21408L8.84974 2.63499C9.01701 2.36044 9.01065 1.99317 8.78292 1.73045C8.62474 1.54727 8.45292 1.3759 8.2702 1.21727C8.00702 0.989996 7.63975 0.983178 7.36566 1.15045L6.78611 1.50318C6.75475 1.52227 6.70202 1.52999 6.64293 1.50227C6.53482 1.4514 6.4244 1.40559 6.31202 1.36499C6.25066 1.34227 6.21839 1.29999 6.20975 1.26454L6.04975 0.605453C5.97384 0.293181 5.7093 0.0377282 5.36248 0.0127283C5.24192 0.00416698 5.12108 -7.8141e-05 5.00021 1.08873e-06ZM6.13657 4.99998C6.13657 5.30136 6.01685 5.59039 5.80374 5.8035C5.59063 6.01661 5.30159 6.13633 5.00021 6.13633C4.69883 6.13633 4.40979 6.01661 4.19669 5.8035C3.98358 5.59039 3.86385 5.30136 3.86385 4.99998C3.86385 4.6986 3.98358 4.40956 4.19669 4.19645C4.40979 3.98334 4.69883 3.86362 5.00021 3.86362C5.30159 3.86362 5.59063 3.98334 5.80374 4.19645C6.01685 4.40956 6.13657 4.6986 6.13657 4.99998ZM6.81839 4.99998C6.81839 5.48219 6.62683 5.94464 6.28586 6.28562C5.94488 6.62659 5.48242 6.81815 5.00021 6.81815C4.518 6.81815 4.05554 6.62659 3.71457 6.28562C3.3736 5.94464 3.18204 5.48219 3.18204 4.99998C3.18204 4.51777 3.3736 4.05531 3.71457 3.71433C4.05554 3.37336 4.518 3.1818 5.00021 3.1818C5.48242 3.1818 5.94488 3.37336 6.28586 3.71433C6.62683 4.05531 6.81839 4.51777 6.81839 4.99998Z" fill="#283593"/>
</svg>
