<svg width="16" height="16" viewBox="0 0 16 16" fill="none" xmlns="http://www.w3.org/2000/svg">
<g clip-path="url(#clip0_1011_2803)">
<path fill-rule="evenodd" clip-rule="evenodd" d="M7.42897 1.525C7.80892 1.49197 8.19102 1.49197 8.57097 1.525C8.60697 1.528 8.67897 1.561 8.70797 1.671L8.99697 2.776C9.14397 3.336 9.54697 3.743 9.99397 3.965C10.168 4.051 10.335 4.148 10.495 4.255C10.912 4.533 11.465 4.678 12.025 4.525L13.127 4.222C13.237 4.192 13.302 4.238 13.322 4.268C13.541 4.578 13.732 4.909 13.895 5.257C13.909 5.288 13.917 5.367 13.836 5.447L13.021 6.253C12.61 6.659 12.459 7.21 12.491 7.709C12.5033 7.9028 12.5033 8.0972 12.491 8.291C12.459 8.79 12.61 9.341 13.021 9.747L13.836 10.553C13.916 10.633 13.909 10.712 13.895 10.743C13.7335 11.0892 13.5417 11.4205 13.322 11.733C13.302 11.762 13.236 11.807 13.127 11.778L12.024 11.475C11.465 11.322 10.912 11.467 10.495 11.745C10.335 11.852 10.168 11.949 9.99497 12.035C9.54597 12.257 9.14397 12.663 8.99697 13.224L8.70797 14.329C8.67897 14.439 8.60697 14.472 8.57097 14.475C8.19101 14.5079 7.80892 14.5079 7.42897 14.475C7.39297 14.472 7.32097 14.438 7.29197 14.329L7.00297 13.224C6.85597 12.664 6.45297 12.257 6.00597 12.035C5.83292 11.9492 5.66557 11.8523 5.50497 11.745C5.08797 11.467 4.53497 11.322 3.97497 11.475L2.87297 11.778C2.76297 11.808 2.69797 11.762 2.67797 11.732C2.45826 11.4198 2.26652 11.0889 2.10497 10.743C2.09097 10.712 2.08297 10.633 2.16397 10.553L2.97897 9.747C3.38997 9.341 3.54097 8.79 3.50897 8.291C3.49665 8.0972 3.49665 7.9028 3.50897 7.709C3.54097 7.21 3.38997 6.659 2.97897 6.253L2.16397 5.447C2.08397 5.367 2.09097 5.288 2.10497 5.257C2.26622 4.91066 2.45798 4.57935 2.67797 4.267C2.69797 4.238 2.76397 4.192 2.87297 4.222L3.97597 4.525C4.53497 4.678 5.08797 4.533 5.50497 4.255C5.66497 4.148 5.83197 4.051 6.00497 3.965C6.45397 3.743 6.85597 3.337 7.00297 2.776L7.29197 1.671C7.32097 1.561 7.39297 1.528 7.42897 1.525V1.525ZM7.99997 0C7.76397 0 7.52997 0.01 7.29897 0.03C6.55597 0.095 6.00897 0.645 5.84097 1.291L5.55097 2.397C5.53397 2.463 5.47297 2.555 5.33997 2.621C5.10924 2.73519 4.88611 2.86412 4.67197 3.007C4.54897 3.089 4.43897 3.097 4.37197 3.078L3.26997 2.776C2.62597 2.599 1.87797 2.796 1.44997 3.406C1.17994 3.79016 0.944358 4.1974 0.745968 4.623C0.430968 5.298 0.634968 6.045 1.10897 6.514L1.92397 7.32C1.97397 7.368 2.02197 7.467 2.01197 7.614C1.99563 7.87107 1.99563 8.12893 2.01197 8.386C2.02197 8.533 1.97397 8.632 1.92397 8.68L1.10897 9.486C0.634968 9.955 0.430968 10.702 0.745968 11.377C0.945968 11.805 1.18197 12.212 1.44997 12.595C1.87797 13.204 2.62597 13.401 3.26997 13.225L4.37297 12.922C4.43897 12.903 4.54897 12.911 4.67197 12.993C4.88497 13.136 5.10797 13.265 5.33997 13.379C5.47297 13.445 5.53397 13.537 5.55197 13.603L5.84097 14.709C6.00997 15.355 6.55597 15.905 7.29897 15.969C7.76542 16.0096 8.23451 16.0096 8.70097 15.969C9.44397 15.905 9.99097 15.355 10.159 14.709L10.449 13.603C10.466 13.537 10.527 13.445 10.66 13.379C10.8907 13.2648 11.1138 13.1359 11.328 12.993C11.451 12.911 11.561 12.903 11.628 12.922L12.73 13.224C13.374 13.401 14.122 13.204 14.55 12.594C14.818 12.212 15.055 11.805 15.254 11.377C15.569 10.702 15.365 9.955 14.89 9.486L14.076 8.68C14.026 8.632 13.978 8.533 13.988 8.386C14.0043 8.12892 14.0043 7.87108 13.988 7.614C13.978 7.467 14.027 7.368 14.076 7.32L14.89 6.514C15.365 6.045 15.569 5.298 15.254 4.623C15.0556 4.1971 14.82 3.78952 14.55 3.405C14.122 2.796 13.374 2.599 12.73 2.775L11.627 3.078C11.561 3.097 11.451 3.089 11.328 3.007C11.1138 2.86411 10.8907 2.73518 10.66 2.621C10.527 2.555 10.466 2.463 10.448 2.397L10.16 1.29C9.98997 0.645 9.44397 0.095 8.70097 0.031C8.46786 0.0105382 8.23397 0.000195197 7.99997 0V0ZM9.49997 8C9.49997 8.39782 9.34193 8.77936 9.06063 9.06066C8.77932 9.34196 8.39779 9.5 7.99997 9.5C7.60214 9.5 7.22061 9.34196 6.93931 9.06066C6.658 8.77936 6.49997 8.39782 6.49997 8C6.49997 7.60218 6.658 7.22064 6.93931 6.93934C7.22061 6.65804 7.60214 6.5 7.99997 6.5C8.39779 6.5 8.77932 6.65804 9.06063 6.93934C9.34193 7.22064 9.49997 7.60218 9.49997 8V8ZM11 8C11 8.79565 10.6839 9.55871 10.1213 10.1213C9.55868 10.6839 8.79562 11 7.99997 11C7.20432 11 6.44126 10.6839 5.87865 10.1213C5.31604 9.55871 4.99997 8.79565 4.99997 8C4.99997 7.20435 5.31604 6.44129 5.87865 5.87868C6.44126 5.31607 7.20432 5 7.99997 5C8.79562 5 9.55868 5.31607 10.1213 5.87868C10.6839 6.44129 11 7.20435 11 8V8Z" fill="#283593"/>
</g>
<defs>
<clipPath id="clip0_1011_2803">
<rect width="16" height="16" fill="white"/>
</clipPath>
</defs>
</svg>
