<svg width="12" height="12" viewBox="0 0 12 12" fill="none" xmlns="http://www.w3.org/2000/svg">
<path fill-rule="evenodd" clip-rule="evenodd" d="M5.62389 0.831815C5.87448 0.813848 6.12603 0.813848 6.37662 0.831815C6.40662 0.833997 6.45025 0.859088 6.46498 0.919088L6.65643 1.70999C6.73989 2.05254 6.99789 2.29908 7.29625 2.40708C7.40807 2.44744 7.51716 2.49272 7.62352 2.5429C7.77215 2.61478 7.93628 2.64872 8.10123 2.64168C8.26619 2.63464 8.42682 2.58683 8.56879 2.50253L9.26424 2.07926C9.31715 2.04654 9.36569 2.05963 9.3886 2.07926C9.57842 2.24399 9.75624 2.42181 9.92096 2.61162C9.9406 2.63453 9.95369 2.68253 9.92096 2.73599L9.49769 3.43089C9.4133 3.57292 9.36545 3.73366 9.3584 3.89872C9.35136 4.06378 9.38535 4.228 9.45733 4.37671C9.50751 4.48307 9.55278 4.59216 9.5926 4.70398C9.7006 5.00234 9.94824 5.26034 10.2897 5.34325L11.0806 5.53579C11.1411 5.54997 11.1662 5.59361 11.1684 5.62361C11.1864 5.8742 11.1864 6.12575 11.1684 6.37633C11.1662 6.40633 11.1411 6.44997 11.0811 6.4647L10.2902 6.65615C10.1302 6.69695 9.98285 6.77673 9.86121 6.88838C9.73957 7.00002 9.64748 7.14005 9.59315 7.29597C9.55284 7.40713 9.50734 7.51634 9.45678 7.62324C9.38498 7.77191 9.35113 7.93607 9.35827 8.10102C9.36541 8.26597 9.41331 8.42659 9.49769 8.5685L9.92096 9.26395C9.95369 9.31686 9.9406 9.36541 9.92096 9.38832C9.75658 9.57837 9.57866 9.75629 9.3886 9.92068C9.36569 9.94031 9.31769 9.95341 9.26424 9.92068L8.56879 9.49741C8.42682 9.41311 8.26619 9.36531 8.10123 9.35826C7.93628 9.35122 7.77215 9.38516 7.62352 9.45704C7.5166 9.50723 7.40739 9.55237 7.29625 9.59232C7.14044 9.64672 7.00052 9.73885 6.88897 9.86049C6.77743 9.98212 6.69772 10.1295 6.65698 10.2894L6.46444 11.0803C6.45025 11.1409 6.40662 11.1659 6.37662 11.1681C6.12603 11.1861 5.87448 11.1861 5.62389 11.1681C5.59389 11.1659 5.55026 11.1409 5.53553 11.0809L5.34408 10.2899C5.30328 10.13 5.2235 9.98257 5.11185 9.86093C5.00021 9.73929 4.86017 9.64719 4.70426 9.59286C4.5931 9.55255 4.48389 9.50705 4.37699 9.4565C4.22824 9.3846 4.06399 9.3507 3.89893 9.35784C3.73387 9.36498 3.57316 9.41293 3.43118 9.49741L2.73627 9.92068C2.68336 9.95341 2.63482 9.94031 2.61191 9.92068C2.42186 9.75628 2.24394 9.57837 2.07955 9.38832C2.05991 9.36541 2.04682 9.31741 2.07955 9.26395L2.50282 8.5685C2.58711 8.42654 2.63492 8.2659 2.64196 8.10095C2.64901 7.936 2.61507 7.77187 2.54318 7.62324C2.49283 7.51632 2.44751 7.40711 2.40736 7.29597C2.35301 7.14022 2.26096 7.00034 2.13943 6.8888C2.0179 6.77726 1.87065 6.69752 1.71082 6.6567L0.919918 6.46415C0.859372 6.44997 0.834282 6.40633 0.8321 6.37633C0.814133 6.12575 0.814133 5.8742 0.8321 5.62361C0.834282 5.59361 0.859372 5.54997 0.919372 5.53525L1.71028 5.34379C1.87027 5.303 2.01766 5.22321 2.1393 5.11157C2.26094 4.99992 2.35303 4.85989 2.40736 4.70398C2.44751 4.59283 2.49283 4.48362 2.54318 4.37671C2.61516 4.228 2.64915 4.06378 2.64211 3.89872C2.63507 3.73366 2.58721 3.57292 2.50282 3.43089L2.07955 2.73599C2.04682 2.68308 2.05991 2.63453 2.07955 2.61162C2.24427 2.42181 2.42209 2.24399 2.61191 2.07926C2.63482 2.05963 2.68282 2.04654 2.73627 2.07926L3.43118 2.50253C3.57321 2.58692 3.73394 2.63478 3.899 2.64183C4.06406 2.64887 4.22829 2.61488 4.37699 2.5429C4.4839 2.49255 4.59311 2.44723 4.70426 2.40708C4.86001 2.35273 4.99989 2.26068 5.11143 2.13914C5.22297 2.01761 5.30271 1.87037 5.34353 1.71054L5.53608 0.919633C5.55026 0.859088 5.59389 0.833997 5.62389 0.831815V0.831815ZM6.00026 1.30648e-06C5.85407 1.30648e-06 5.70898 0.00545582 5.56553 0.015274C5.14935 0.0452738 4.8319 0.351818 4.74081 0.726543L4.54881 1.51745C4.5379 1.55999 4.49972 1.61127 4.42608 1.63745C4.29122 1.68633 4.15871 1.74148 4.02899 1.80272C3.95808 1.83545 3.89481 1.82672 3.85718 1.80381L3.16227 1.38054C2.83282 1.17981 2.39209 1.18745 2.07682 1.46072C1.857 1.65054 1.65137 1.85672 1.46101 2.07599C1.18828 2.39181 1.1801 2.83253 1.38082 3.16144L1.80409 3.85689C1.827 3.89453 1.83628 3.9578 1.803 4.02871C1.74195 4.15844 1.68698 4.29094 1.63828 4.4258C1.611 4.49943 1.56028 4.53816 1.51773 4.54852L0.726828 4.74052C0.352102 4.83161 0.0455582 5.14907 0.0155583 5.56525C-0.00518611 5.85469 -0.00518611 6.14525 0.0155583 6.4347C0.0455582 6.85088 0.352102 7.16833 0.726828 7.25942L1.51773 7.45142C1.56028 7.46233 1.61155 7.50051 1.63773 7.57415C1.68682 7.70942 1.74191 7.84196 1.803 7.97178C1.83573 8.04214 1.827 8.10542 1.80409 8.14305L1.38082 8.83796C1.1801 9.16741 1.18773 9.60814 1.46101 9.92341C1.65082 10.1432 1.857 10.3489 2.07628 10.5392C2.39209 10.8119 2.83282 10.8201 3.16172 10.6194L3.85718 10.1961C3.89481 10.1732 3.95808 10.164 4.02899 10.1972C4.15826 10.2583 4.29081 10.3134 4.42608 10.3619C4.49972 10.3892 4.53844 10.4399 4.54881 10.4825L4.74081 11.2734C4.8319 11.6481 5.14935 11.9547 5.56553 11.9841C5.85497 12.0049 6.14554 12.0049 6.43498 11.9841C6.85116 11.9547 7.16861 11.6481 7.2597 11.2734L7.4517 10.4825C7.46261 10.4399 7.50079 10.3887 7.57443 10.3625C7.7097 10.3134 7.84225 10.2583 7.97206 10.1972C8.04243 10.1645 8.1057 10.1732 8.14334 10.1961L8.83824 10.6194C9.16769 10.8201 9.60842 10.8125 9.92369 10.5392C10.1435 10.3494 10.3491 10.1432 10.5395 9.92395C10.8122 9.60813 10.8204 9.16741 10.6197 8.8385L10.1964 8.14305C10.1735 8.10542 10.1642 8.04214 10.1975 7.97123C10.2586 7.84196 10.3137 7.70942 10.3622 7.57415C10.3895 7.50051 10.4402 7.46178 10.4828 7.45142L11.2737 7.25942C11.6484 7.16833 11.955 6.85088 11.9844 6.4347C12.0052 6.14525 12.0052 5.85469 11.9844 5.56525C11.955 5.14907 11.6484 4.83161 11.2737 4.74052L10.4828 4.54852C10.4402 4.53762 10.389 4.49943 10.3628 4.4258C10.3139 4.29094 10.2587 4.15843 10.1975 4.02871C10.1648 3.9578 10.1735 3.89453 10.1964 3.85689L10.6197 3.16199C10.8204 2.83253 10.8128 2.39181 10.5395 2.07654C10.3497 1.85672 10.1435 1.65108 9.92424 1.46072C9.60842 1.188 9.1677 1.17981 8.83879 1.38054L8.14334 1.80381C8.1057 1.82672 8.04243 1.83599 7.97152 1.80272C7.84179 1.74168 7.70928 1.68671 7.57443 1.63799C7.50079 1.61072 7.46207 1.55999 7.4517 1.51745L7.2597 0.726543C7.16861 0.351818 6.85116 0.0452738 6.43498 0.015274C6.2903 0.00500037 6.1453 -9.37693e-05 6.00026 1.30648e-06V1.30648e-06ZM7.36389 5.99997C7.36389 6.36163 7.22022 6.70847 6.96449 6.9642C6.70876 7.21993 6.36191 7.3636 6.00026 7.3636C5.6386 7.3636 5.29175 7.21993 5.03602 6.9642C4.78029 6.70847 4.63663 6.36163 4.63663 5.99997C4.63663 5.63831 4.78029 5.29147 5.03602 5.03574C5.29175 4.78001 5.6386 4.63634 6.00026 4.63634C6.36191 4.63634 6.70876 4.78001 6.96449 5.03574C7.22022 5.29147 7.36389 5.63831 7.36389 5.99997ZM8.18206 5.99997C8.18206 6.57862 7.95219 7.13357 7.54303 7.54274C7.13386 7.95191 6.57891 8.18178 6.00026 8.18178C5.4216 8.18178 4.86665 7.95191 4.45748 7.54274C4.04832 7.13357 3.81845 6.57862 3.81845 5.99997C3.81845 5.42132 4.04832 4.86637 4.45748 4.4572C4.86665 4.04803 5.4216 3.81816 6.00026 3.81816C6.57891 3.81816 7.13386 4.04803 7.54303 4.4572C7.95219 4.86637 8.18206 5.42132 8.18206 5.99997V5.99997Z" fill="#283593"/>
</svg>
