<svg width="16" height="16" viewBox="0 0 16 16" fill="none" xmlns="http://www.w3.org/2000/svg">
<path fill-rule="evenodd" clip-rule="evenodd" d="M10.72 1.227C10.8606 1.08655 11.0512 1.00766 11.25 1.00766C11.4487 1.00766 11.6394 1.08655 11.78 1.227L12.75 2.197L13.72 1.227C13.7892 1.1554 13.872 1.0983 13.9635 1.05904C14.055 1.01978 14.1535 0.999135 14.253 0.998317C14.3526 0.997499 14.4514 1.01652 14.5435 1.05428C14.6357 1.09203 14.7194 1.14776 14.7898 1.21821C14.8602 1.28866 14.9158 1.37243 14.9535 1.46462C14.9911 1.55681 15.0101 1.65558 15.0092 1.75516C15.0083 1.85474 14.9875 1.95315 14.9482 2.04463C14.9088 2.13612 14.8516 2.21885 14.78 2.288L13.81 3.258L14.78 4.228C14.9125 4.37018 14.9846 4.55822 14.9812 4.75252C14.9777 4.94682 14.899 5.13221 14.7616 5.26962C14.6242 5.40703 14.4388 5.48575 14.2445 5.48917C14.0502 5.4926 13.8622 5.42048 13.72 5.288L12.75 4.318L11.78 5.288C11.7113 5.36169 11.6285 5.42079 11.5365 5.46178C11.4445 5.50277 11.3452 5.52482 11.2445 5.52659C11.1438 5.52837 11.0438 5.50984 10.9504 5.47212C10.857 5.4344 10.7722 5.37826 10.7009 5.30704C10.6297 5.23582 10.5736 5.15099 10.5359 5.0576C10.4981 4.96421 10.4796 4.86418 10.4814 4.76348C10.4832 4.66277 10.5052 4.56346 10.5462 4.47146C10.5872 4.37946 10.6463 4.29666 10.72 4.228L11.69 3.258L10.72 2.288C10.5795 2.14737 10.5006 1.95675 10.5006 1.758C10.5006 1.55925 10.5795 1.36863 10.72 1.228V1.227ZM12.75 6.5C12.5511 6.5 12.3603 6.57902 12.2196 6.71967C12.079 6.86032 12 7.05109 12 7.25V10.628C11.4993 10.8049 11.0773 11.1532 10.8085 11.6112C10.5398 12.0692 10.4416 12.6075 10.5314 13.1309C10.6211 13.6542 10.893 14.1291 11.299 14.4713C11.705 14.8136 12.2189 15.0014 12.75 15.0014C13.281 15.0014 13.7949 14.8136 14.2009 14.4713C14.6069 14.1291 14.8788 13.6542 14.9686 13.1309C15.0583 12.6075 14.9602 12.0692 14.6914 11.6112C14.4227 11.1532 14.0007 10.8049 13.5 10.628V7.25C13.5 7.05109 13.421 6.86032 13.2803 6.71967C13.1397 6.57902 12.9489 6.5 12.75 6.5ZM12.75 12C12.5511 12 12.3603 12.079 12.2196 12.2197C12.079 12.3603 12 12.5511 12 12.75C12 12.9489 12.079 13.1397 12.2196 13.2803C12.3603 13.421 12.5511 13.5 12.75 13.5C12.9489 13.5 13.1397 13.421 13.2803 13.2803C13.421 13.1397 13.5 12.9489 13.5 12.75C13.5 12.5511 13.421 12.3603 13.2803 12.2197C13.1397 12.079 12.9489 12 12.75 12ZM2.49998 3.25C2.49998 3.05109 2.579 2.86032 2.71965 2.71967C2.8603 2.57902 3.05107 2.5 3.24998 2.5C3.44889 2.5 3.63966 2.57902 3.78031 2.71967C3.92096 2.86032 3.99998 3.05109 3.99998 3.25C3.99998 3.44891 3.92096 3.63968 3.78031 3.78033C3.63966 3.92098 3.44889 4 3.24998 4C3.05107 4 2.8603 3.92098 2.71965 3.78033C2.579 3.63968 2.49998 3.44891 2.49998 3.25ZM3.24998 1C2.71887 0.999545 2.20473 1.18698 1.79852 1.52914C1.39232 1.8713 1.12024 2.34612 1.03044 2.86958C0.940647 3.39304 1.03892 3.93139 1.30786 4.38937C1.5768 4.84734 1.99909 5.19542 2.49998 5.372V10.628C1.99929 10.8049 1.57727 11.1532 1.30853 11.6112C1.03978 12.0692 0.941609 12.6075 1.03137 13.1309C1.12112 13.6542 1.39303 14.1291 1.79902 14.4713C2.20501 14.8136 2.71895 15.0014 3.24998 15.0014C3.78101 15.0014 4.29494 14.8136 4.70094 14.4713C5.10693 14.1291 5.37883 13.6542 5.46859 13.1309C5.55835 12.6075 5.46018 12.0692 5.19143 11.6112C4.92268 11.1532 4.50067 10.8049 3.99998 10.628V5.372C4.50087 5.19542 4.92315 4.84734 5.1921 4.38937C5.46104 3.93139 5.55931 3.39304 5.46951 2.86958C5.37972 2.34612 5.10764 1.8713 4.70144 1.52914C4.29523 1.18698 3.78109 0.999545 3.24998 1V1ZM3.24998 12C3.05107 12 2.8603 12.079 2.71965 12.2197C2.579 12.3603 2.49998 12.5511 2.49998 12.75C2.49998 12.9489 2.579 13.1397 2.71965 13.2803C2.8603 13.421 3.05107 13.5 3.24998 13.5C3.44889 13.5 3.63966 13.421 3.78031 13.2803C3.92096 13.1397 3.99998 12.9489 3.99998 12.75C3.99998 12.5511 3.92096 12.3603 3.78031 12.2197C3.63966 12.079 3.44889 12 3.24998 12Z" fill="#D73A49"/>
</svg>
