<svg width="16" height="16" viewBox="0 0 16 16" fill="none" xmlns="http://www.w3.org/2000/svg">
<path fill-rule="evenodd" clip-rule="evenodd" d="M5 3.254V3.25V3.255C4.99934 3.45369 4.91986 3.64401 4.77901 3.78415C4.63816 3.9243 4.44745 4.00283 4.24876 4.0025C4.05006 4.00217 3.85962 3.923 3.71924 3.78239C3.57885 3.64177 3.50001 3.4512 3.50001 3.2525C3.50001 3.0538 3.57885 2.86323 3.71924 2.72261C3.85962 2.582 4.05006 2.50283 4.24876 2.5025C4.44745 2.50217 4.63816 2.5807 4.77901 2.72085C4.91986 2.86099 4.99934 3.05131 5 3.25V3.254ZM5.45 5.154C5.8808 4.8824 6.20671 4.4727 6.37446 3.99186C6.54222 3.51102 6.54189 2.9875 6.37353 2.50687C6.20518 2.02624 5.87876 1.61695 5.44763 1.34589C5.0165 1.07483 4.50616 0.958042 4.00006 1.01462C3.49395 1.0712 3.02201 1.2978 2.66138 1.65737C2.30075 2.01695 2.07277 2.48823 2.01471 2.99417C1.95665 3.5001 2.07194 4.01078 2.34174 4.4427C2.61153 4.87462 3.01987 5.20224 3.5 5.372V10.628C2.99959 10.8049 2.57784 11.1531 2.30928 11.6109C2.04072 12.0687 1.94265 12.6067 2.03241 13.1298C2.12216 13.6529 2.39396 14.1275 2.79976 14.4696C3.20556 14.8117 3.71924 14.9993 4.25 14.9993C4.78077 14.9993 5.29445 14.8117 5.70025 14.4696C6.10605 14.1275 6.37785 13.6529 6.4676 13.1298C6.55735 12.6067 6.45929 12.0687 6.19073 11.6109C5.92217 11.1531 5.50042 10.8049 5 10.628V7.123C5.53827 7.71504 6.19448 8.18788 6.92642 8.51115C7.65836 8.83441 8.44985 9.00093 9.25 9H10.628C10.8049 9.50069 11.1532 9.92271 11.6112 10.1915C12.0692 10.4602 12.6075 10.5584 13.1309 10.4686C13.6543 10.3789 14.1291 10.1069 14.4714 9.70096C14.8136 9.29497 15.0014 8.78103 15.0014 8.25C15.0014 7.71897 14.8136 7.20503 14.4714 6.79904C14.1291 6.39305 13.6543 6.12114 13.1309 6.03139C12.6075 5.94163 12.0692 6.0398 11.6112 6.30855C11.1532 6.57729 10.8049 6.99931 10.628 7.5H9.25C8.4613 7.50007 7.68814 7.28066 7.01703 6.86634C6.34592 6.45202 5.80334 5.85913 5.45 5.154V5.154ZM12.75 9C12.9489 9 13.1397 8.92098 13.2803 8.78033C13.421 8.63968 13.5 8.44891 13.5 8.25C13.5 8.05109 13.421 7.86032 13.2803 7.71967C13.1397 7.57902 12.9489 7.5 12.75 7.5C12.5511 7.5 12.3603 7.57902 12.2197 7.71967C12.079 7.86032 12 8.05109 12 8.25C12 8.44891 12.079 8.63968 12.2197 8.78033C12.3603 8.92098 12.5511 9 12.75 9ZM4.25 13.5C4.44892 13.5 4.63968 13.421 4.78033 13.2803C4.92099 13.1397 5 12.9489 5 12.75C5 12.5511 4.92099 12.3603 4.78033 12.2197C4.63968 12.079 4.44892 12 4.25 12C4.05109 12 3.86033 12.079 3.71967 12.2197C3.57902 12.3603 3.5 12.5511 3.5 12.75C3.5 12.9489 3.57902 13.1397 3.71967 13.2803C3.86033 13.421 4.05109 13.5 4.25 13.5Z" fill="#A371F7"/>
</svg>
