<svg width="14" height="16" viewBox="0 0 14 16" fill="none" xmlns="http://www.w3.org/2000/svg">
<path fill-rule="evenodd" clip-rule="evenodd" d="M6.17703 3.073L8.57303 0.677C8.60799 0.641947 8.65258 0.618064 8.70113 0.608381C8.74969 0.598698 8.80002 0.603649 8.84576 0.622608C8.8915 0.641567 8.93057 0.673679 8.95804 0.714873C8.9855 0.756068 9.00012 0.80449 9.00003 0.854V5.646C9.00012 5.69551 8.9855 5.74393 8.95804 5.78513C8.93057 5.82632 8.8915 5.85843 8.84576 5.87739C8.80002 5.89635 8.74969 5.9013 8.70113 5.89162C8.65258 5.88194 8.60799 5.85805 8.57303 5.823L6.17703 3.427C6.15375 3.40378 6.13528 3.37619 6.12267 3.34582C6.11007 3.31544 6.10358 3.28288 6.10358 3.25C6.10358 3.21712 6.11007 3.18456 6.12267 3.15418C6.13528 3.12381 6.15375 3.09622 6.17703 3.073ZM2.75003 2.5C2.55112 2.5 2.36035 2.57902 2.2197 2.71967C2.07905 2.86032 2.00003 3.05109 2.00003 3.25C2.00003 3.44891 2.07905 3.63968 2.2197 3.78033C2.36035 3.92098 2.55112 4 2.75003 4C2.94894 4 3.13971 3.92098 3.28036 3.78033C3.42101 3.63968 3.50003 3.44891 3.50003 3.25C3.50003 3.05109 3.42101 2.86032 3.28036 2.71967C3.13971 2.57902 2.94894 2.5 2.75003 2.5V2.5ZM0.500028 3.25C0.500153 2.83753 0.613656 2.43303 0.828133 2.08071C1.04261 1.72839 1.34981 1.44181 1.71615 1.25228C2.0825 1.06275 2.49389 0.97757 2.90538 1.00605C3.31686 1.03453 3.7126 1.17557 4.04934 1.41376C4.38609 1.65195 4.65088 1.97812 4.81477 2.35663C4.97867 2.73513 5.03537 3.15141 4.97867 3.55997C4.92197 3.96852 4.75406 4.35362 4.49328 4.6732C4.23251 4.99277 3.88891 5.23451 3.50003 5.372V10.628C4.00072 10.8049 4.42273 11.1532 4.69148 11.6112C4.96023 12.0692 5.0584 12.6075 4.96864 13.1309C4.87888 13.6542 4.60698 14.1291 4.20099 14.4713C3.79499 14.8136 3.28106 15.0014 2.75003 15.0014C2.219 15.0014 1.70506 14.8136 1.29907 14.4713C0.893079 14.1291 0.621173 13.6542 0.531416 13.1309C0.441658 12.6075 0.539829 12.0692 0.808576 11.6112C1.07732 11.1532 1.49934 10.8049 2.00003 10.628V5.372C1.56124 5.21687 1.18136 4.92948 0.912715 4.54944C0.644071 4.1694 0.499887 3.7154 0.500028 3.25V3.25ZM10 2.5H9.00003V4H10C10.2652 4 10.5196 4.10536 10.7071 4.29289C10.8947 4.48043 11 4.73478 11 5V10.628C10.4993 10.8049 10.0773 11.1532 9.80858 11.6112C9.53983 12.0692 9.44166 12.6075 9.53141 13.1309C9.62117 13.6542 9.89308 14.1291 10.2991 14.4713C10.7051 14.8136 11.219 15.0014 11.75 15.0014C12.2811 15.0014 12.795 14.8136 13.201 14.4713C13.607 14.1291 13.8789 13.6542 13.9686 13.1309C14.0584 12.6075 13.9602 12.0692 13.6915 11.6112C13.4227 11.1532 13.0007 10.8049 12.5 10.628V5C12.5 4.33696 12.2366 3.70107 11.7678 3.23223C11.299 2.76339 10.6631 2.5 10 2.5ZM11 12.75C11 12.5511 11.079 12.3603 11.2197 12.2197C11.3604 12.079 11.5511 12 11.75 12C11.9489 12 12.1397 12.079 12.2804 12.2197C12.421 12.3603 12.5 12.5511 12.5 12.75C12.5 12.9489 12.421 13.1397 12.2804 13.2803C12.1397 13.421 11.9489 13.5 11.75 13.5C11.5511 13.5 11.3604 13.421 11.2197 13.2803C11.079 13.1397 11 12.9489 11 12.75ZM2.75003 12C2.55112 12 2.36035 12.079 2.2197 12.2197C2.07905 12.3603 2.00003 12.5511 2.00003 12.75C2.00003 12.9489 2.07905 13.1397 2.2197 13.2803C2.36035 13.421 2.55112 13.5 2.75003 13.5C2.94894 13.5 3.13971 13.421 3.28036 13.2803C3.42101 13.1397 3.50003 12.9489 3.50003 12.75C3.50003 12.5511 3.42101 12.3603 3.28036 12.2197C3.13971 12.079 2.94894 12 2.75003 12V12Z" fill="#22863A"/>
</svg>
