<svg width="16" height="16" viewBox="0 0 16 16" fill="none" xmlns="http://www.w3.org/2000/svg">
<path fill-rule="evenodd" clip-rule="evenodd" d="M1.49837 7.9985C1.49832 6.76429 1.84966 5.55557 2.51131 4.51369C3.17295 3.47181 4.11756 2.63984 5.23465 2.11507C6.35175 1.5903 7.59516 1.39441 8.81949 1.55033C10.0438 1.70624 11.1984 2.2075 12.1484 2.9955C12.3018 3.11797 12.4971 3.17541 12.6924 3.15549C12.8877 3.13557 13.0674 3.03988 13.1929 2.88896C13.3184 2.73804 13.3798 2.54392 13.3638 2.34827C13.3478 2.15262 13.2557 1.97104 13.1074 1.8425C11.7799 0.741395 10.132 0.0987931 8.40956 0.0104948C6.68708 -0.0778036 4.98219 0.39293 3.54905 1.35252C2.1159 2.31211 1.03125 3.70917 0.456788 5.33543C-0.117673 6.96169 -0.151181 8.73005 0.361262 10.3769C0.873704 12.0238 1.90465 13.4609 3.30042 14.4741C4.69618 15.4873 6.38202 16.0223 8.1066 15.9993C9.83119 15.9763 11.5022 15.3966 12.8704 14.3466C14.2387 13.2965 15.231 11.8324 15.6994 10.1725C15.7261 10.0777 15.7339 9.97854 15.7223 9.88072C15.7107 9.78289 15.6799 9.68831 15.6318 9.60237C15.5836 9.51643 15.519 9.44081 15.4417 9.37984C15.3643 9.31887 15.2757 9.27373 15.1809 9.247C15.0861 9.22028 14.9869 9.21249 14.8891 9.22409C14.7913 9.23568 14.6967 9.26643 14.6107 9.31458C14.5248 9.36272 14.4492 9.42733 14.3882 9.5047C14.3272 9.58207 14.2821 9.67069 14.2554 9.7655C13.83 11.2773 12.8716 12.5839 11.5574 13.4439C10.2433 14.3038 8.6622 14.6589 7.10655 14.4434C5.55089 14.2279 4.12586 13.4565 3.09491 12.2717C2.06397 11.087 1.49683 9.56901 1.49837 7.9985V7.9985ZM7.99837 11.9985C8.26358 11.9985 8.51794 11.8931 8.70547 11.7056C8.89301 11.5181 8.99837 11.2637 8.99837 10.9985C8.99837 10.7333 8.89301 10.4789 8.70547 10.2914C8.51794 10.1039 8.26358 9.9985 7.99837 9.9985C7.73315 9.9985 7.4788 10.1039 7.29126 10.2914C7.10372 10.4789 6.99837 10.7333 6.99837 10.9985C6.99837 11.2637 7.10372 11.5181 7.29126 11.7056C7.4788 11.8931 7.73315 11.9985 7.99837 11.9985ZM7.99837 3.9985C8.19728 3.9985 8.38804 4.07752 8.5287 4.21817C8.66935 4.35883 8.74837 4.54959 8.74837 4.7485V8.2485C8.74837 8.44742 8.66935 8.63818 8.5287 8.77883C8.38804 8.91949 8.19728 8.9985 7.99837 8.9985C7.79945 8.9985 7.60869 8.91949 7.46804 8.77883C7.32738 8.63818 7.24837 8.44742 7.24837 8.2485V4.7485C7.24837 4.54959 7.32738 4.35883 7.46804 4.21817C7.60869 4.07752 7.79945 3.9985 7.99837 3.9985ZM12.7784 8.2785L15.7784 5.2785C15.9108 5.13633 15.983 4.94828 15.9795 4.75398C15.9761 4.55968 15.8974 4.3743 15.76 4.23688C15.6226 4.09947 15.4372 4.02076 15.2429 4.01733C15.0486 4.0139 14.8605 4.08602 14.7184 4.2185L12.2484 6.6885L11.2784 5.7185C11.2088 5.6489 11.1261 5.59369 11.0352 5.55603C10.9443 5.51836 10.8468 5.49897 10.7484 5.49897C10.6499 5.49897 10.5525 5.51836 10.4615 5.55603C10.3706 5.59369 10.288 5.6489 10.2184 5.7185C10.1488 5.7881 10.0936 5.87073 10.0559 5.96167C10.0182 6.05261 9.99883 6.15007 9.99883 6.2485C9.99883 6.34693 10.0182 6.4444 10.0559 6.53534C10.0936 6.62628 10.1488 6.7089 10.2184 6.7785L11.7184 8.2785C11.859 8.41895 12.0496 8.49784 12.2484 8.49784C12.4471 8.49784 12.6377 8.41895 12.7784 8.2785V8.2785Z" fill="white"/>
</svg>
