<svg width="14" height="16" viewBox="0 0 14 16" fill="none" xmlns="http://www.w3.org/2000/svg">
<path d="M6.99993 16C7.48718 16.0002 7.95774 15.8225 8.32324 15.5002C8.68873 15.178 8.92402 14.7334 8.98493 14.25C9.00193 14.113 8.88793 14 8.74993 14H5.24993C5.11193 14 4.99793 14.113 5.01493 14.25C5.07584 14.7334 5.31113 15.178 5.67663 15.5002C6.04212 15.8225 6.51268 16.0002 6.99993 16Z" fill="white"/>
<path fill-rule="evenodd" clip-rule="evenodd" d="M6.99992 1.5C6.07167 1.5 5.18143 1.86875 4.52505 2.52513C3.86867 3.1815 3.49992 4.07174 3.49992 5V7.947C3.49992 8.293 3.39792 8.63 3.20592 8.917L1.50292 11.473C1.50096 11.476 1.49991 11.4794 1.49992 11.483L1.50092 11.489C1.50092 11.491 1.50292 11.493 1.50492 11.495C1.50662 11.4967 1.50866 11.4981 1.51092 11.499L1.51792 11.5H12.4819L12.4889 11.499C12.4912 11.4981 12.4933 11.4968 12.4949 11.495C12.4967 11.4933 12.4981 11.4913 12.4989 11.489L12.4999 11.482C12.5 11.4784 12.4989 11.4749 12.4969 11.472L10.7939 8.918C10.6024 8.63075 10.5001 8.29326 10.4999 7.948V5C10.4999 4.07174 10.1312 3.1815 9.4748 2.52513C8.81842 1.86875 7.92818 1.5 6.99992 1.5ZM1.99992 5C1.99992 3.67392 2.52671 2.40215 3.46439 1.46447C4.40207 0.526784 5.67384 0 6.99992 0C8.32601 0 9.59778 0.526784 10.5355 1.46447C11.4731 2.40215 11.9999 3.67392 11.9999 5V7.947C11.9999 7.997 12.0149 8.045 12.0419 8.086L13.7449 10.641C13.8971 10.8696 13.9843 11.1352 13.9974 11.4095C14.0106 11.6837 13.9491 11.9564 13.8194 12.1985C13.6898 12.4406 13.497 12.643 13.2615 12.7841C13.0259 12.9253 12.7565 12.9999 12.4819 13H1.51792C1.24318 13 0.973585 12.9254 0.737893 12.7842C0.502202 12.643 0.309249 12.4405 0.17961 12.1983C0.0499713 11.956 -0.0114934 11.6831 0.00177025 11.4087C0.0150339 11.1343 0.102529 10.8686 0.254925 10.64L1.95792 8.086C1.98537 8.04484 1.99999 7.99647 1.99992 7.947V5Z" fill="white"/>
</svg>
