<svg width="12" height="12" viewBox="0 0 12 12" fill="none" xmlns="http://www.w3.org/2000/svg">
<path fill-rule="evenodd" clip-rule="evenodd" d="M0 5.0625C0 4.338 0.588 3.75 1.3125 3.75H2.4375C2.58668 3.75 2.72976 3.80926 2.83525 3.91475C2.94074 4.02024 3 4.16332 3 4.3125C3 4.46168 2.94074 4.60476 2.83525 4.71025C2.72976 4.81574 2.58668 4.875 2.4375 4.875H1.3125C1.26277 4.875 1.21508 4.89475 1.17992 4.92992C1.14475 4.96508 1.125 5.01277 1.125 5.0625V10.6875C1.125 10.791 1.209 10.875 1.3125 10.875H6.9375C6.98723 10.875 7.03492 10.8552 7.07008 10.8201C7.10525 10.7849 7.125 10.7372 7.125 10.6875V9.5625C7.125 9.41332 7.18426 9.27024 7.28975 9.16475C7.39524 9.05926 7.53832 9 7.6875 9C7.83668 9 7.97976 9.05926 8.08525 9.16475C8.19074 9.27024 8.25 9.41332 8.25 9.5625V10.6875C8.25 11.0356 8.11172 11.3694 7.86558 11.6156C7.61944 11.8617 7.2856 12 6.9375 12H1.3125C0.964403 12 0.630564 11.8617 0.384422 11.6156C0.138281 11.3694 0 11.0356 0 10.6875L0 5.0625Z" fill="#283593"/>
<path fill-rule="evenodd" clip-rule="evenodd" d="M3.75 1.3125C3.75 0.588 4.338 0 5.0625 0H10.6875C11.412 0 12 0.588 12 1.3125V6.9375C12 7.2856 11.8617 7.61944 11.6156 7.86558C11.3694 8.11172 11.0356 8.25 10.6875 8.25H5.0625C4.7144 8.25 4.38056 8.11172 4.13442 7.86558C3.88828 7.61944 3.75 7.2856 3.75 6.9375V1.3125ZM5.0625 1.125C5.01277 1.125 4.96508 1.14475 4.92992 1.17992C4.89475 1.21508 4.875 1.26277 4.875 1.3125V6.9375C4.875 7.041 4.959 7.125 5.0625 7.125H10.6875C10.7372 7.125 10.7849 7.10525 10.8201 7.07008C10.8552 7.03492 10.875 6.98723 10.875 6.9375V1.3125C10.875 1.26277 10.8552 1.21508 10.8201 1.17992C10.7849 1.14475 10.7372 1.125 10.6875 1.125H5.0625Z" fill="#283593"/>
</svg>
