<svg width="12" height="12" viewBox="0 0 12 12" fill="none" xmlns="http://www.w3.org/2000/svg">
<path fill-rule="evenodd" clip-rule="evenodd" d="M8.53072 0.43631C8.8103 0.156935 9.18936 0 9.58459 0C9.97983 0 10.3589 0.156935 10.6385 0.43631L11.5637 1.36153C11.8431 1.64111 12 2.02017 12 2.41541C12 2.81064 11.8431 3.1897 11.5637 3.46928L4.22834 10.8046C4.04943 10.9835 3.82792 11.1147 3.58426 11.1837L0.814552 11.9761C0.704924 12.0074 0.58891 12.0088 0.478545 11.9802C0.36818 11.9516 0.267484 11.8939 0.186906 11.8133C0.106327 11.7326 0.0488002 11.6318 0.0202935 11.5215C-0.00821326 11.4111 -0.00666144 11.295 0.0247879 11.1854L0.816256 8.41659C0.885631 8.17258 1.01612 7.95031 1.19538 7.7708L8.53072 0.435458V0.43631ZM9.73539 1.33938C9.71561 1.31955 9.6921 1.30381 9.66623 1.29307C9.64035 1.28234 9.61261 1.27681 9.58459 1.27681C9.55658 1.27681 9.52884 1.28234 9.50296 1.29307C9.47709 1.30381 9.45358 1.31955 9.4338 1.33938L8.35863 2.41541L9.58459 3.64222L10.6606 2.5662C10.6805 2.54642 10.6962 2.52291 10.7069 2.49704C10.7177 2.47116 10.7232 2.44342 10.7232 2.41541C10.7232 2.38739 10.7177 2.35965 10.7069 2.33377C10.6962 2.3079 10.6805 2.28439 10.6606 2.26461L9.73539 1.33938V1.33938ZM8.68067 4.5453L7.4547 3.31848L2.0993 8.67473C2.0736 8.70027 2.05483 8.73193 2.04478 8.76674L1.56939 10.4306L3.23326 9.95522C3.26808 9.9452 3.29976 9.92643 3.32527 9.9007L8.68067 4.5453Z" fill="#7986CB"/>
</svg>
