<svg width="16" height="16" viewBox="0 0 16 16" fill="none" xmlns="http://www.w3.org/2000/svg">
<path fill-rule="evenodd" clip-rule="evenodd" d="M7.49853 1.10909C7.83264 1.08513 8.16804 1.08513 8.50216 1.10909C8.54216 1.112 8.60034 1.14545 8.61997 1.22545L8.87525 2.27999C8.98652 2.73672 9.33052 3.06544 9.72833 3.20944C9.87742 3.26326 10.0229 3.32362 10.1647 3.39053C10.3629 3.48638 10.5817 3.53163 10.8016 3.52224C11.0216 3.51285 11.2358 3.44911 11.425 3.33671L12.3523 2.77235C12.4229 2.72872 12.4876 2.74617 12.5181 2.77235C12.7712 2.99199 13.0083 3.22908 13.228 3.48217C13.2541 3.51271 13.2716 3.57671 13.228 3.64798L12.6636 4.57452C12.5511 4.7639 12.4873 4.97821 12.4779 5.19829C12.4685 5.41837 12.5138 5.63734 12.6098 5.83561C12.6767 5.97743 12.737 6.12288 12.7901 6.27197C12.9341 6.66979 13.2643 7.01378 13.7196 7.12433L14.7741 7.38106C14.8549 7.39996 14.8883 7.45815 14.8912 7.49815C14.9152 7.83226 14.9152 8.16766 14.8912 8.50178C14.8883 8.54178 14.8549 8.59996 14.7749 8.6196L13.7203 8.87487C13.507 8.92926 13.3105 9.03564 13.1483 9.1845C12.9861 9.33336 12.8633 9.52007 12.7909 9.72795C12.7371 9.87617 12.6764 10.0218 12.609 10.1643C12.5133 10.3625 12.4682 10.5814 12.4777 10.8014C12.4872 11.0213 12.5511 11.2354 12.6636 11.4247L13.228 12.3519C13.2716 12.4225 13.2541 12.4872 13.228 12.5178C13.0088 12.7712 12.7715 13.0084 12.5181 13.2276C12.4876 13.2538 12.4236 13.2712 12.3523 13.2276L11.425 12.6632C11.2358 12.5508 11.0216 12.4871 10.8016 12.4777C10.5817 12.4683 10.3629 12.5135 10.1647 12.6094C10.0221 12.6763 9.87652 12.7365 9.72833 12.7898C9.52058 12.8623 9.33402 12.9851 9.18529 13.1473C9.03657 13.3095 8.9303 13.506 8.87597 13.7192L8.61925 14.7737C8.60034 14.8545 8.54216 14.8879 8.50216 14.8908C8.16804 14.9148 7.83264 14.9148 7.49853 14.8908C7.45853 14.8879 7.40034 14.8545 7.38071 14.7745L7.12544 13.7199C7.07104 13.5066 6.96466 13.3101 6.8158 13.1479C6.66694 12.9857 6.48023 12.8629 6.27235 12.7905C6.12413 12.7367 5.97852 12.6761 5.83599 12.6087C5.63766 12.5128 5.41865 12.4676 5.19858 12.4771C4.9785 12.4866 4.76421 12.5506 4.5749 12.6632L3.64836 13.2276C3.57782 13.2712 3.51309 13.2538 3.48255 13.2276C3.22915 13.0084 2.99192 12.7712 2.77273 12.5178C2.74655 12.4872 2.72909 12.4232 2.77273 12.3519L3.33709 11.4247C3.44948 11.2354 3.51323 11.0212 3.52262 10.8013C3.53201 10.5813 3.48676 10.3625 3.39091 10.1643C3.32378 10.0218 3.26335 9.87615 3.20982 9.72795C3.13735 9.52029 3.01462 9.33378 2.85257 9.18506C2.69053 9.03634 2.4942 8.93003 2.2811 8.87559L1.22656 8.61887C1.14583 8.59996 1.11238 8.54178 1.10947 8.50178C1.08551 8.16766 1.08551 7.83226 1.10947 7.49815C1.11238 7.45815 1.14583 7.39996 1.22583 7.38033L2.28037 7.12506C2.49369 7.07066 2.69021 6.96428 2.8524 6.81542C3.01458 6.66656 3.13738 6.47985 3.20982 6.27197C3.26335 6.12377 3.32378 5.97816 3.39091 5.83561C3.48688 5.63734 3.5322 5.41837 3.52281 5.19829C3.51342 4.97821 3.44961 4.7639 3.33709 4.57452L2.77273 3.64798C2.72909 3.57744 2.74655 3.51271 2.77273 3.48217C2.99237 3.22908 3.22946 2.99199 3.48255 2.77235C3.51309 2.74617 3.57709 2.72872 3.64836 2.77235L4.5749 3.33671C4.76428 3.44923 4.97859 3.51304 5.19867 3.52243C5.41875 3.53183 5.63772 3.48651 5.83599 3.39053C5.97854 3.3234 6.12415 3.26297 6.27235 3.20944C6.48001 3.13697 6.66652 3.01424 6.81524 2.85219C6.96396 2.69015 7.07028 2.49382 7.12471 2.28072L7.38143 1.22618C7.40034 1.14545 7.45853 1.112 7.49853 1.10909ZM8.00034 1.74197e-06C7.80543 1.74197e-06 7.61198 0.00727443 7.42071 0.0203653C6.8658 0.0603651 6.44253 0.46909 6.32108 0.968724L6.06508 2.02326C6.05053 2.07999 5.99962 2.14835 5.90144 2.18326C5.72163 2.24844 5.54495 2.32197 5.37199 2.40363C5.27744 2.44726 5.19308 2.43563 5.1429 2.40508L4.21636 1.84072C3.77709 1.57308 3.18946 1.58327 2.76909 1.94763C2.476 2.20072 2.20182 2.47563 1.94801 2.76799C1.58437 3.18908 1.57346 3.77671 1.8411 4.21525L2.40546 5.14252C2.43601 5.1927 2.44837 5.27707 2.40401 5.37161C2.3226 5.54458 2.24931 5.72126 2.18437 5.90106C2.14801 5.99924 2.08037 6.05088 2.02364 6.0647L0.969103 6.3207C0.46947 6.44215 0.0607442 6.86542 0.0207444 7.42033C-0.00691481 7.80626 -0.00691481 8.19367 0.0207444 8.57959C0.0607442 9.1345 0.46947 9.55777 0.969103 9.67923L2.02364 9.93522C2.08037 9.94977 2.14873 10.0007 2.18364 10.0989C2.2491 10.2792 2.32255 10.4559 2.40401 10.629C2.44764 10.7229 2.43601 10.8072 2.40546 10.8574L1.8411 11.7839C1.57346 12.2232 1.58365 12.8108 1.94801 13.2312C2.2011 13.5243 2.47601 13.7985 2.76837 14.0523C3.18946 14.4159 3.77709 14.4268 4.21563 14.1592L5.1429 13.5948C5.19308 13.5643 5.27744 13.5519 5.37199 13.5963C5.54435 13.6778 5.72108 13.7512 5.90144 13.8159C5.99962 13.8523 6.05126 13.9199 6.06508 13.9767L6.32108 15.0312C6.44253 15.5308 6.8658 15.9396 7.42071 15.9788C7.80663 16.0065 8.19405 16.0065 8.57997 15.9788C9.13488 15.9396 9.55815 15.5308 9.6796 15.0312L9.9356 13.9767C9.95015 13.9199 10.0011 13.8516 10.0992 13.8167C10.2796 13.7512 10.4563 13.6778 10.6294 13.5963C10.7232 13.5527 10.8076 13.5643 10.8578 13.5948L11.7843 14.1592C12.2236 14.4268 12.8112 14.4167 13.2316 14.0523C13.5247 13.7992 13.7989 13.5243 14.0527 13.2319C14.4163 12.8108 14.4272 12.2232 14.1596 11.7847L13.5952 10.8574C13.5647 10.8072 13.5523 10.7229 13.5967 10.6283C13.6781 10.4559 13.7516 10.2792 13.8163 10.0989C13.8527 10.0007 13.9203 9.94904 13.977 9.93522L15.0316 9.67923C15.5312 9.55777 15.9399 9.1345 15.9792 8.57959C16.0069 8.19367 16.0069 7.80625 15.9792 7.42033C15.9399 6.86542 15.5312 6.44215 15.0316 6.3207L13.977 6.0647C13.9203 6.05015 13.8519 5.99924 13.817 5.90106C13.7518 5.72125 13.6783 5.54458 13.5967 5.37161C13.553 5.27707 13.5647 5.1927 13.5952 5.14252L14.1596 4.21598C14.4272 3.77671 14.417 3.18908 14.0527 2.76872C13.7996 2.47563 13.5247 2.20145 13.2323 1.94763C12.8112 1.58399 12.2236 1.57308 11.785 1.84072L10.8578 2.40508C10.8076 2.43563 10.7232 2.44799 10.6287 2.40363C10.4557 2.32223 10.279 2.24894 10.0992 2.18399C10.0011 2.14763 9.94942 2.07999 9.9356 2.02326L9.6796 0.968724C9.55815 0.46909 9.13488 0.0603651 8.57997 0.0203653C8.38707 0.00666716 8.19373 -0.000125026 8.00034 1.74197e-06ZM9.81851 7.99996C9.81851 8.48217 9.62696 8.94463 9.28598 9.2856C8.94501 9.62658 8.48255 9.81813 8.00034 9.81813C7.51813 9.81813 7.05567 9.62658 6.7147 9.2856C6.37372 8.94463 6.18217 8.48217 6.18217 7.99996C6.18217 7.51775 6.37372 7.05529 6.7147 6.71432C7.05567 6.37335 7.51813 6.18179 8.00034 6.18179C8.48255 6.18179 8.94501 6.37335 9.28598 6.71432C9.62696 7.05529 9.81851 7.51775 9.81851 7.99996ZM10.9094 7.99996C10.9094 8.7715 10.6029 9.51143 10.0574 10.057C9.51181 10.6025 8.77188 10.909 8.00034 10.909C7.22881 10.909 6.48887 10.6025 5.94331 10.057C5.39776 9.51143 5.09126 8.7715 5.09126 7.99996C5.09126 7.22843 5.39776 6.48849 5.94331 5.94293C6.48887 5.39738 7.22881 5.09089 8.00034 5.09089C8.77188 5.09089 9.51181 5.39738 10.0574 5.94293C10.6029 6.48849 10.9094 7.22843 10.9094 7.99996Z" fill="white"/>
</svg>
