<svg width="16" height="14" viewBox="0 0 16 14" fill="none" xmlns="http://www.w3.org/2000/svg">
<path fill-rule="evenodd" clip-rule="evenodd" d="M0 0.750004C0 0.551091 0.0790176 0.360326 0.21967 0.219674C0.360322 0.0790213 0.551088 3.68191e-06 0.75 3.68191e-06H5.003C6.23 3.68191e-06 7.32 0.590004 8.003 1.501C8.35218 1.03433 8.80548 0.655627 9.32683 0.395042C9.84817 0.134456 10.4232 -0.000813646 11.006 3.68191e-06H15.251C15.4499 3.68191e-06 15.6407 0.0790213 15.7813 0.219674C15.922 0.360326 16.001 0.551091 16.001 0.750004V11.25C16.001 11.4489 15.922 11.6397 15.7813 11.7803C15.6407 11.921 15.4499 12 15.251 12H10.744C10.4485 12 10.1559 12.0582 9.88296 12.1713C9.60997 12.2843 9.36193 12.4501 9.153 12.659L8.531 13.28C8.39038 13.4205 8.19975 13.4993 8.001 13.4993C7.80225 13.4993 7.61163 13.4205 7.471 13.28L6.849 12.659C6.64007 12.4501 6.39203 12.2843 6.11904 12.1713C5.84606 12.0582 5.55347 12 5.258 12H0.75C0.551088 12 0.360322 11.921 0.21967 11.7803C0.0790176 11.6397 0 11.4489 0 11.25L0 0.750004ZM8.755 3.75C8.755 3.15327 8.99205 2.58097 9.41401 2.15901C9.83597 1.73706 10.4083 1.5 11.005 1.5H14.5V10.5H10.743C10.033 10.5 9.343 10.701 8.751 11.072L8.755 3.75ZM7.251 11.074L7.255 6.001L7.253 3.748C7.25247 3.15161 7.01518 2.57983 6.59328 2.15831C6.17138 1.73678 5.59939 1.5 5.003 1.5H1.5V10.5H5.257C5.96243 10.5 6.65355 10.6989 7.251 11.074Z" fill="rgb(0, 0, 0, 0.40)"/>
</svg>
