<svg width="16" height="14" viewBox="0 0 16 14" fill="none" xmlns="http://www.w3.org/2000/svg">
<path fill-rule="evenodd" clip-rule="evenodd" d="M1.75 1.5C1.6837 1.5 1.62011 1.52634 1.57322 1.57322C1.52634 1.62011 1.5 1.6837 1.5 1.75V3.25C1.5 3.388 1.612 3.5 1.75 3.5H14.25C14.3163 3.5 14.3799 3.47366 14.4268 3.42678C14.4737 3.37989 14.5 3.3163 14.5 3.25V1.75C14.5 1.6837 14.4737 1.62011 14.4268 1.57322C14.3799 1.52634 14.3163 1.5 14.25 1.5H1.75ZM0 1.75C0 0.784 0.784 0 1.75 0H14.25C15.216 0 16 0.784 16 1.75V3.25C16 3.71413 15.8156 4.15925 15.4874 4.48744C15.1592 4.81563 14.7141 5 14.25 5H1.75C1.28587 5 0.840752 4.81563 0.512563 4.48744C0.184374 4.15925 0 3.71413 0 3.25L0 1.75ZM1.75 6C1.94891 6 2.13968 6.07902 2.28033 6.21967C2.42098 6.36032 2.5 6.55109 2.5 6.75V12.25C2.5 12.388 2.612 12.5 2.75 12.5H13.25C13.3163 12.5 13.3799 12.4737 13.4268 12.4268C13.4737 12.3799 13.5 12.3163 13.5 12.25V6.75C13.5 6.55109 13.579 6.36032 13.7197 6.21967C13.8603 6.07902 14.0511 6 14.25 6C14.4489 6 14.6397 6.07902 14.7803 6.21967C14.921 6.36032 15 6.55109 15 6.75V12.25C15 12.7141 14.8156 13.1592 14.4874 13.4874C14.1592 13.8156 13.7141 14 13.25 14H2.75C2.28587 14 1.84075 13.8156 1.51256 13.4874C1.18437 13.1592 1 12.7141 1 12.25V6.75C1 6.55109 1.07902 6.36032 1.21967 6.21967C1.36032 6.07902 1.55109 6 1.75 6ZM6.25 7C6.05109 7 5.86032 7.07902 5.71967 7.21967C5.57902 7.36032 5.5 7.55109 5.5 7.75C5.5 7.94891 5.57902 8.13968 5.71967 8.28033C5.86032 8.42098 6.05109 8.5 6.25 8.5H9.75C9.94891 8.5 10.1397 8.42098 10.2803 8.28033C10.421 8.13968 10.5 7.94891 10.5 7.75C10.5 7.55109 10.421 7.36032 10.2803 7.21967C10.1397 7.07902 9.94891 7 9.75 7H6.25Z" fill="rgb(26, 35, 126, 0.6)"/>
</svg>
