<svg width="12" height="15" viewBox="0 0 12 15" fill="none" xmlns="http://www.w3.org/2000/svg">
<path fill-rule="evenodd" clip-rule="evenodd" d="M3.5 4.00078C3.49991 3.45998 3.67518 2.93372 3.99953 2.50098C4.32387 2.06823 4.7798 1.75233 5.2989 1.60067C5.818 1.44901 6.37229 1.46976 6.87859 1.65982C7.3849 1.84988 7.81593 2.19899 8.107 2.65478C8.21415 2.8224 8.38349 2.94058 8.57778 2.98334C8.77207 3.0261 8.97538 2.98993 9.143 2.88278C9.31062 2.77563 9.4288 2.60629 9.47156 2.412C9.51432 2.21771 9.47815 2.0144 9.371 1.84678C8.90523 1.11758 8.21556 0.559074 7.40547 0.255049C6.59538 -0.048975 5.70855 -0.082123 4.87802 0.160579C4.04749 0.40328 3.31806 0.908744 2.79915 1.60114C2.28024 2.29353 1.99983 3.13552 2 4.00078V6.00078H1.499C1.10135 6.00105 0.720075 6.1592 0.438986 6.44047C0.157898 6.72175 -8.8367e-08 7.10313 0 7.50078V13.5008C0 13.8986 0.158035 14.2801 0.43934 14.5614C0.720644 14.8427 1.10218 15.0008 1.5 15.0008H10.5C10.8978 15.0008 11.2794 14.8427 11.5607 14.5614C11.842 14.2801 12 13.8986 12 13.5008V7.50078C12 7.10296 11.842 6.72142 11.5607 6.44012C11.2794 6.15882 10.8978 6.00078 10.5 6.00078H3.5V4.00078ZM2.75 7.50078H1.5V13.5008H10.5V7.50078H2.75Z" fill="#5C6BC0"/>
</svg>
