<svg width="12" height="15" viewBox="0 0 12 15" fill="none" xmlns="http://www.w3.org/2000/svg">
<path fill-rule="evenodd" clip-rule="evenodd" d="M2.00049 4.00073V6.00073H1.75049C1.28636 6.00073 0.84124 6.18511 0.513052 6.5133C0.184863 6.84148 0.000488281 7.2866 0.000488281 7.75073V13.2507C0.000488281 14.2167 0.784488 15.0007 1.75049 15.0007H10.2505C10.7146 15.0007 11.1597 14.8164 11.4879 14.4882C11.8161 14.16 12.0005 13.7149 12.0005 13.2507V7.75073C12.0005 7.2866 11.8161 6.84148 11.4879 6.5133C11.1597 6.18511 10.7146 6.00073 10.2505 6.00073H10.0005V4.00073C10.0005 2.93987 9.57906 1.92245 8.82892 1.17231C8.07877 0.42216 7.06135 0.000732422 6.00049 0.000732422C4.93962 0.000732422 3.92221 0.42216 3.17206 1.17231C2.42192 1.92245 2.00049 2.93987 2.00049 4.00073ZM8.50049 6.00073V4.00073C8.50049 3.33769 8.2371 2.70181 7.76826 2.23297C7.29941 1.76412 6.66353 1.50073 6.00049 1.50073C5.33745 1.50073 4.70156 1.76412 4.23272 2.23297C3.76388 2.70181 3.50049 3.33769 3.50049 4.00073V6.00073H8.50049ZM10.0005 7.50073H10.2505C10.3168 7.50073 10.3804 7.52707 10.4273 7.57396C10.4741 7.62084 10.5005 7.68443 10.5005 7.75073V13.2507C10.5005 13.317 10.4741 13.3806 10.4273 13.4275C10.3804 13.4744 10.3168 13.5007 10.2505 13.5007H1.75049C1.68418 13.5007 1.6206 13.4744 1.57371 13.4275C1.52683 13.3806 1.50049 13.317 1.50049 13.2507V7.75073C1.50049 7.68443 1.52683 7.62084 1.57371 7.57396C1.6206 7.52707 1.68418 7.50073 1.75049 7.50073H10.0005Z" fill="#5C6BC0"/>
</svg>
