<svg width="200" height="368" viewBox="0 0 200 368" fill="none" xmlns="http://www.w3.org/2000/svg">
<path d="M41.0741 321.123C38.4592 360.871 43.6891 367.147 43.6891 367.147C43.6891 367.147 36.5414 362.091 30.6141 355.99C24.6868 349.888 15.9932 338.556 10.74 327.922C5.48693 317.288 2.19775 302.643 0.454379 290.266C-1.28899 277.888 2.54639 259.409 2.54639 259.409C2.54639 259.409 3.41802 271.438 8.12504 276.145C12.832 280.852 14.5754 289.045 14.5754 289.045C14.5754 289.045 13.8432 274.75 11.4374 266.731C9.03157 258.711 9.4616 253.307 11.4374 250.343C13.4132 247.38 21.2001 239.709 29.7424 227.506C38.2848 215.302 42.9918 205.191 42.9918 205.191C42.9918 205.191 46.8271 210.072 47.6988 217.917C48.5705 225.762 47.6988 234.479 47.6988 234.479C47.6988 234.479 53.9748 207.632 57.6358 197.869C61.2968 188.106 59.9022 175.38 59.9022 175.38C59.9022 175.38 64.0862 180.087 64.9579 183.922C65.8295 187.758 66.5269 194.208 66.5269 194.208C66.5269 194.208 68.2702 174.508 75.2436 165.443C82.2169 156.377 85.8779 153.588 91.1079 147.138C96.3379 140.687 98.6043 131.796 98.6043 131.796C98.6043 131.796 101.568 137.201 101.568 142.082C101.568 146.963 100.696 153.414 100.696 153.414C100.696 153.414 106.449 142.954 109.936 138.944C113.423 134.934 120.047 127.612 123.011 123.254C125.975 118.896 126.846 116.629 128.067 111.225C129.287 105.821 134.517 99.0216 134.517 99.0216C134.517 99.0216 135.214 106.867 137.829 110.005C140.444 113.143 140.619 119.942 140.619 119.942C140.619 119.942 146.023 115.758 143.931 108.087C141.839 100.416 142.013 93.9659 142.013 93.9659C142.013 93.9659 150.207 78.4502 153.868 67.6415C157.529 56.8328 159.447 46.0241 160.667 36.7844C161.887 27.5447 161.539 20.3971 160.667 15.167C159.795 9.93703 155.786 0 155.786 0C155.786 0 168.512 15.167 171.999 19.5254C175.485 23.8837 177.577 25.4527 181.587 32.7748C185.597 40.0968 185.771 55.6125 185.771 55.6125C185.771 55.6125 188.909 53.3461 191.176 48.9878C193.442 44.6295 193.442 37.3074 193.442 37.3074C193.442 37.3074 194.314 52.8231 195.36 59.9708C196.406 67.1185 198.846 75.3122 199.718 84.9006C200.59 94.4889 199.195 111.225 198.846 112.271C198.498 113.317 195.185 115.583 192.919 118.721C190.653 121.859 188.561 126.218 188.561 126.218C188.561 126.218 191.35 125.695 193.616 124.3C195.883 122.905 199.718 123.254 199.718 123.254C199.718 123.254 196.754 124.997 194.662 127.787C192.57 130.576 193.616 134.76 191.524 142.082C189.432 149.404 185.248 155.68 182.11 158.818C178.972 161.956 171.824 168.058 167.815 172.067C163.805 176.077 155.96 189.327 155.96 189.327C155.96 189.327 165.897 184.794 168.686 181.656C171.476 178.518 174.788 175.554 177.403 173.288C180.018 171.021 186.992 166.837 186.992 166.837C186.992 166.837 182.982 172.59 182.11 176.077C181.239 179.564 180.541 181.307 179.495 184.62C178.449 187.932 176.88 191.07 174.614 194.034C172.347 196.997 169.907 198.392 165.374 200.833C160.841 203.273 159.272 203.622 159.272 203.622C159.272 203.622 162.236 204.145 163.805 205.017C165.374 205.888 168.686 205.017 168.686 205.017C168.686 205.017 166.42 207.98 165.374 209.549C164.328 211.118 160.493 219.486 158.052 222.45C155.611 225.414 144.803 234.479 133.297 239.883C121.791 245.288 102.614 251.564 102.614 251.564C102.614 251.564 117.084 251.912 126.498 249.472C135.912 247.031 150.556 241.104 150.556 241.104C150.556 241.104 144.977 252.164 141.839 258.886C138.701 265.607 130.682 275.099 120.222 281.375C109.762 287.651 96.5123 293.927 96.5123 293.927C96.5123 293.927 102.788 296.019 110.982 293.927C119.176 291.835 128.067 287.476 128.067 287.476C128.067 287.476 120.396 297.936 111.505 305.607C102.614 313.278 89.8876 319.205 80.6479 325.83C71.4082 332.455 68.0959 336.987 62.8659 345.878C57.6358 354.769 55.7182 367.147 55.7182 367.147C55.7182 367.147 49.2678 342.043 52.9288 311.709C56.5898 281.375 64.7835 252.784 80.6479 227.506C96.5123 202.227 108.056 187.06 118.827 174.159C129.598 161.259 141.385 149.055 151.496 134.586C161.607 120.116 167.815 98.4986 167.815 98.4986C167.815 98.4986 165.548 104.949 162.062 112.62C158.575 120.29 153.519 127.787 153.519 127.787C153.519 127.787 160.773 112.445 164.154 100.765C167.535 89.0846 168.512 78.2759 168.512 78.2759C168.512 78.2759 163.176 101.288 158.401 112.271C153.626 123.254 153.625 124.474 148.532 132.319C143.44 140.164 136.921 147.312 131.448 153.414C125.975 159.515 109.702 174.682 99.1273 188.455C88.5521 202.227 78.2072 215.477 67.9215 233.607C57.6358 251.738 43.6891 281.375 41.0741 321.123Z" fill="url(#paint0_linear)"/>
<defs>
<linearGradient id="paint0_linear" x1="100" y1="0" x2="100" y2="367.147" gradientUnits="userSpaceOnUse">
<stop stop-color="#7986CB"/>
<stop offset="0.713542" stop-color="#283593"/>
</linearGradient>
</defs>
</svg>
