<svg width="16" height="16" viewBox="0 0 16 16" fill="none" xmlns="http://www.w3.org/2000/svg">
<path fill-rule="evenodd" clip-rule="evenodd" d="M11.4932 4.00001C11.4932 4.66305 11.2298 5.29894 10.761 5.76778C10.2922 6.23662 9.65627 6.50001 8.99323 6.50001C8.33019 6.50001 7.6943 6.23662 7.22546 5.76778C6.75662 5.29894 6.49323 4.66305 6.49323 4.00001C6.49323 3.33697 6.75662 2.70109 7.22546 2.23225C7.6943 1.7634 8.33019 1.50001 8.99323 1.50001C9.65627 1.50001 10.2922 1.7634 10.761 2.23225C11.2298 2.70109 11.4932 3.33697 11.4932 4.00001ZM11.5542 7.07301C12.1855 6.54665 12.6394 5.83859 12.854 5.04515C13.0686 4.25171 13.0336 3.41142 12.7536 2.6386C12.4737 1.86577 11.9625 1.19794 11.2896 0.72596C10.6167 0.253978 9.81468 0.000762939 8.99273 0.000762939C8.17078 0.000762939 7.36878 0.253978 6.69585 0.72596C6.02291 1.19794 5.51172 1.86577 5.23181 2.6386C4.9519 3.41142 4.91687 4.25171 5.13148 5.04515C5.34609 5.83859 5.79992 6.54665 6.43123 7.07301C5.44681 7.53842 4.6075 8.26277 4.00313 9.16853C3.39876 10.0743 3.05209 11.1274 3.00023 12.215C2.9954 12.411 3.06751 12.6011 3.2011 12.7446C3.3347 12.888 3.51916 12.9735 3.71499 12.9827C3.91082 12.9918 4.10245 12.9239 4.24885 12.7935C4.39524 12.6631 4.48476 12.4806 4.49823 12.285C4.55274 11.1295 5.05013 10.0394 5.88713 9.24099C6.72414 8.44254 7.83647 7.99709 8.99323 7.99709C10.15 7.99709 11.2623 8.44254 12.0993 9.24099C12.9363 10.0394 13.4337 11.1295 13.4882 12.285C13.4907 12.3849 13.5131 12.4832 13.5541 12.5743C13.595 12.6654 13.6538 12.7474 13.7269 12.8154C13.8 12.8835 13.886 12.9363 13.9798 12.9707C14.0735 13.0051 14.1732 13.0204 14.273 13.0157C14.3728 13.0111 14.4706 12.9865 14.5608 12.9435C14.6509 12.9005 14.7316 12.84 14.798 12.7654C14.8645 12.6908 14.9154 12.6037 14.9477 12.5092C14.98 12.4147 14.9931 12.3147 14.9862 12.215C14.9342 11.1273 14.5873 10.0742 13.9828 9.16844C13.3782 8.26268 12.5388 7.53837 11.5542 7.07301Z" fill="#C5CAE9"/>
</svg>
