<svg width="16" height="16" viewBox="0 0 16 16" fill="none" xmlns="http://www.w3.org/2000/svg">
<path d="M11.28 6.78C11.4125 6.63782 11.4846 6.44978 11.4812 6.25548C11.4778 6.06118 11.3991 5.87579 11.2617 5.73838C11.1242 5.60096 10.9389 5.52225 10.7446 5.51882C10.5503 5.5154 10.3622 5.58752 10.22 5.72L7.25003 8.69L5.78003 7.22C5.63785 7.08752 5.44981 7.0154 5.25551 7.01882C5.06121 7.02225 4.87582 7.10096 4.73841 7.23838C4.60099 7.37579 4.52228 7.56118 4.51885 7.75548C4.51543 7.94978 4.58755 8.13782 4.72003 8.28L6.72003 10.28C6.86065 10.4204 7.05128 10.4993 7.25003 10.4993C7.44878 10.4993 7.6394 10.4204 7.78003 10.28L11.28 6.78V6.78Z" fill="#D73A49"/>
<path fill-rule="evenodd" clip-rule="evenodd" d="M16 8C16 10.1217 15.1571 12.1566 13.6569 13.6569C12.1566 15.1571 10.1217 16 8 16C5.87827 16 3.84344 15.1571 2.34315 13.6569C0.842855 12.1566 0 10.1217 0 8C0 5.87827 0.842855 3.84344 2.34315 2.34315C3.84344 0.842855 5.87827 0 8 0C10.1217 0 12.1566 0.842855 13.6569 2.34315C15.1571 3.84344 16 5.87827 16 8V8ZM14.5 8C14.5 9.72391 13.8152 11.3772 12.5962 12.5962C11.3772 13.8152 9.72391 14.5 8 14.5C6.27609 14.5 4.62279 13.8152 3.40381 12.5962C2.18482 11.3772 1.5 9.72391 1.5 8C1.5 6.27609 2.18482 4.62279 3.40381 3.40381C4.62279 2.18482 6.27609 1.5 8 1.5C9.72391 1.5 11.3772 2.18482 12.5962 3.40381C13.8152 4.62279 14.5 6.27609 14.5 8V8Z" fill="#D73A49"/>
</svg>
