<svg width="12" height="12" viewBox="0 0 12 12" fill="none" xmlns="http://www.w3.org/2000/svg">
<path fill-rule="evenodd" clip-rule="evenodd" d="M0.291868 0.31687C0.478993 0.130431 0.73265 0.0257101 0.99712 0.0257101C1.26159 0.0257101 1.51525 0.130431 1.70237 0.31687L5.98711 4.59121L10.2719 0.31687C10.3632 0.219055 10.4734 0.140601 10.5958 0.0861869C10.7182 0.0317728 10.8504 0.0025135 10.9844 0.00015494C11.1184 -0.00220362 11.2515 0.0223866 11.3758 0.0724587C11.5 0.122531 11.6129 0.197059 11.7077 0.291597C11.8025 0.386135 11.8772 0.498747 11.9274 0.622714C11.9776 0.74668 12.0022 0.879462 11.9998 1.01314C11.9975 1.14681 11.9682 1.27865 11.9136 1.40077C11.8591 1.52289 11.7804 1.6328 11.6824 1.72395L7.39762 5.99829L11.6824 10.2726C11.7804 10.3638 11.8591 10.4737 11.9136 10.5958C11.9682 10.7179 11.9975 10.8498 11.9998 10.9834C12.0022 11.1171 11.9776 11.2499 11.9274 11.3739C11.8772 11.4978 11.8025 11.6104 11.7077 11.705C11.6129 11.7995 11.5 11.874 11.3758 11.9241C11.2515 11.9742 11.1184 11.9988 10.9844 11.9964C10.8504 11.9941 10.7182 11.9648 10.5958 11.9104C10.4734 11.856 10.3632 11.7775 10.2719 11.6797L5.98711 7.40536L1.70237 11.6797C1.51319 11.8556 1.26296 11.9513 1.00441 11.9467C0.745859 11.9422 0.499174 11.8377 0.316323 11.6553C0.133473 11.4729 0.0287335 11.2268 0.0241717 10.9689C0.0196099 10.711 0.115582 10.4613 0.291868 10.2726L4.57661 5.99829L0.291868 1.72395C0.104976 1.53728 0 1.28424 0 1.02041C0 0.756581 0.104976 0.50354 0.291868 0.31687Z" fill="white"/>
</svg>
