<svg width="8" height="8" viewBox="0 0 8 8" fill="none" xmlns="http://www.w3.org/2000/svg">
<path fill-rule="evenodd" clip-rule="evenodd" d="M0.194579 0.211246C0.319329 0.0869539 0.488433 0.0171401 0.664747 0.0171401C0.841061 0.0171401 1.01017 0.0869539 1.13492 0.211246L3.99141 3.0608L6.8479 0.211246C6.90881 0.146037 6.98227 0.093734 7.06388 0.0574579C7.14549 0.0211819 7.2336 0.00167567 7.32293 0.000103293C7.41227 -0.00146908 7.501 0.0149244 7.58385 0.0483058C7.66669 0.0816873 7.74195 0.131373 7.80513 0.194398C7.86831 0.257424 7.91811 0.332498 7.95158 0.415142C7.98504 0.497787 8.00147 0.586308 7.9999 0.675426C7.99832 0.764543 7.97877 0.852431 7.9424 0.933846C7.90604 1.01526 7.85361 1.08854 7.78824 1.1493L4.93175 3.99886L7.78824 6.84841C7.85361 6.90918 7.90604 6.98245 7.9424 7.06387C7.97877 7.14528 7.99832 7.23317 7.9999 7.32229C8.00147 7.41141 7.98504 7.49993 7.95158 7.58257C7.91811 7.66522 7.86831 7.74029 7.80513 7.80332C7.74195 7.86634 7.66669 7.91603 7.58385 7.94941C7.501 7.98279 7.41227 7.99918 7.32293 7.99761C7.2336 7.99604 7.14549 7.97653 7.06388 7.94026C6.98227 7.90398 6.90881 7.85168 6.8479 7.78647L3.99141 4.93691L1.13492 7.78647C1.00879 7.90371 0.841973 7.96753 0.669606 7.9645C0.49724 7.96146 0.332783 7.89181 0.210882 7.7702C0.0889819 7.6486 0.0191557 7.48454 0.0161145 7.31259C0.0130732 7.14065 0.0770544 6.97423 0.194579 6.84841L3.05107 3.99886L0.194579 1.1493C0.0699838 1.02485 0 0.856158 0 0.680273C0 0.504387 0.0699838 0.335694 0.194579 0.211246Z" fill="#C5CAE9"/>
</svg>
