<svg width="10" height="10" viewBox="0 0 10 10" fill="none" xmlns="http://www.w3.org/2000/svg">
<path fill-rule="evenodd" clip-rule="evenodd" d="M0.243223 0.264133C0.399161 0.108723 0.610542 0.0214312 0.830934 0.0214312C1.05133 0.0214312 1.26271 0.108723 1.41864 0.264133L4.98926 3.8271L8.55988 0.264133C8.63602 0.182598 8.72783 0.117201 8.82985 0.0718429C8.93187 0.0264849 9.042 0.00209518 9.15366 0.000129153C9.26533 -0.00183688 9.37625 0.0186608 9.47981 0.0603995C9.58337 0.102138 9.67744 0.164263 9.75641 0.243067C9.83538 0.321871 9.89764 0.415741 9.93947 0.519076C9.9813 0.622411 10.0018 0.733094 9.99987 0.844523C9.9979 0.955952 9.97346 1.06584 9.928 1.16764C9.88255 1.26944 9.81701 1.36106 9.7353 1.43703L6.16468 5L9.7353 8.56296C9.81701 8.63894 9.88255 8.73056 9.928 8.83236C9.97346 8.93416 9.9979 9.04405 9.99987 9.15548C10.0018 9.2669 9.9813 9.37759 9.93947 9.48092C9.89764 9.58426 9.83538 9.67813 9.75641 9.75693C9.67744 9.83574 9.58337 9.89786 9.47981 9.9396C9.37625 9.98134 9.26533 10.0018 9.15366 9.99987C9.042 9.9979 8.93187 9.97351 8.82985 9.92816C8.72783 9.8828 8.63602 9.8174 8.55988 9.73586L4.98926 6.1729L1.41864 9.73586C1.26099 9.88246 1.05247 9.96226 0.837008 9.95847C0.62155 9.95467 0.415978 9.86758 0.263603 9.71553C0.111227 9.56348 0.0239446 9.35835 0.0201431 9.14335C0.0163416 8.92836 0.096318 8.72028 0.243223 8.56296L3.81384 5L0.243223 1.43703C0.0874797 1.28143 0 1.0705 0 0.850584C0 0.630664 0.0874797 0.419737 0.243223 0.264133Z" fill="#283593"/>
</svg>
